<svg viewBox="0 0 2083 400" xmlns="http://www.w3.org/2000/svg"><g><g><g><g><g><line x1="30.766000747680664" y1="351.45143407426076" x2="25.766000747680664" y2="351.45143407426076" style="visibility: inherit;" fill="rgb(0, 0, 0)" stroke="rgb(204, 204, 204)" stroke-width="1px"></line><line x1="30.766000747680664" y1="309.1803775881236" x2="25.766000747680664" y2="309.1803775881236" style="visibility: inherit;" fill="rgb(0, 0, 0)" stroke="rgb(204, 204, 204)" stroke-width="1px"></line><line x1="30.766000747680664" y1="266.90932110198645" x2="25.766000747680664" y2="266.90932110198645" style="visibility: inherit;" fill="rgb(0, 0, 0)" stroke="rgb(204, 204, 204)" stroke-width="1px"></line><line x1="30.766000747680664" y1="224.63826461584927" x2="25.766000747680664" y2="224.63826461584927" style="visibility: inherit;" fill="rgb(0, 0, 0)" stroke="rgb(204, 204, 204)" stroke-width="1px"></line><line x1="30.766000747680664" y1="182.36720812971208" x2="25.766000747680664" y2="182.36720812971208" style="visibility: inherit;" fill="rgb(0, 0, 0)" stroke="rgb(204, 204, 204)" stroke-width="1px"></line><line x1="30.766000747680664" y1="140.09615164357493" x2="25.766000747680664" y2="140.09615164357493" style="visibility: inherit;" fill="rgb(0, 0, 0)" stroke="rgb(204, 204, 204)" stroke-width="1px"></line><line x1="30.766000747680664" y1="97.82509515743776" x2="25.766000747680664" y2="97.82509515743776" style="visibility: inherit;" fill="rgb(0, 0, 0)" stroke="rgb(204, 204, 204)" stroke-width="1px"></line><line x1="30.766000747680664" y1="55.55403867130059" x2="25.766000747680664" y2="55.55403867130059" style="visibility: inherit;" fill="rgb(0, 0, 0)" stroke="rgb(204, 204, 204)" stroke-width="1px"></line><line x1="30.766000747680664" y1="13.282982185163375" x2="25.766000747680664" y2="13.282982185163375" style="visibility: inherit;" fill="rgb(0, 0, 0)" stroke="rgb(204, 204, 204)" stroke-width="1px"></line></g><g transform="translate(20.766000747680664, 0)"><text style="text-anchor: end; visibility: inherit; font-family: Roboto, sans-serif; font-size: 12px; font-weight: 200;" x="0" y="351.45143407426076" dx="0em" dy="0.3em" fill="rgb(255, 255, 255)" stroke="none" stroke-width="1px">82</text><text style="text-anchor: end; visibility: inherit; font-family: Roboto, sans-serif; font-size: 12px; font-weight: 200;" x="0" y="309.1803775881236" dx="0em" dy="0.3em" fill="rgb(255, 255, 255)" stroke="none" stroke-width="1px">84</text><text style="text-anchor: end; visibility: inherit; font-family: Roboto, sans-serif; font-size: 12px; font-weight: 200;" x="0" y="266.90932110198645" dx="0em" dy="0.3em" fill="rgb(255, 255, 255)" stroke="none" stroke-width="1px">86</text><text style="text-anchor: end; visibility: inherit; font-family: Roboto, sans-serif; font-size: 12px; font-weight: 200;" x="0" y="224.63826461584927" dx="0em" dy="0.3em" fill="rgb(255, 255, 255)" stroke="none" stroke-width="1px">88</text><text style="text-anchor: end; visibility: inherit; font-family: Roboto, sans-serif; font-size: 12px; font-weight: 200;" x="0" y="182.36720812971208" dx="0em" dy="0.3em" fill="rgb(255, 255, 255)" stroke="none" stroke-width="1px">90</text><text style="text-anchor: end; visibility: inherit; font-family: Roboto, sans-serif; font-size: 12px; font-weight: 200;" x="0" y="140.09615164357493" dx="0em" dy="0.3em" fill="rgb(255, 255, 255)" stroke="none" stroke-width="1px">92</text><text style="text-anchor: end; visibility: inherit; font-family: Roboto, sans-serif; font-size: 12px; font-weight: 200;" x="0" y="97.82509515743776" dx="0em" dy="0.3em" fill="rgb(255, 255, 255)" stroke="none" stroke-width="1px">94</text><text style="text-anchor: end; visibility: inherit; font-family: Roboto, sans-serif; font-size: 12px; font-weight: 200;" x="0" y="55.55403867130059" dx="0em" dy="0.3em" fill="rgb(255, 255, 255)" stroke="none" stroke-width="1px">96</text><text style="text-anchor: end; visibility: inherit; font-family: Roboto, sans-serif; font-size: 12px; font-weight: 200;" x="0" y="13.282982185163375" dx="0em" dy="0.3em" fill="rgb(255, 255, 255)" stroke="none" stroke-width="1px">98</text></g><line x1="30.766000747680664" y1="0" x2="30.766000747680664" y2="376.8999996185303" fill="rgb(0, 0, 0)" stroke="rgb(204, 204, 204)" stroke-width="1px"></line></g></g><g transform="translate(30, 0)" clip-path="url(#clip_0)"><clipPath id="clip_0"><rect width="2052" height="376"></rect></clipPath><g><g><g><line x1="231.58469908782376" y1="0" x2="231.58469908782376" y2="376.8999996185303" fill="rgb(0, 0, 0)" stroke="rgb(189, 189, 189)" stroke-width="1px" opacity="0.25"></line><line x1="498.74330787676473" y1="0" x2="498.74330787676473" y2="376.8999996185303" fill="rgb(0, 0, 0)" stroke="rgb(189, 189, 189)" stroke-width="1px" opacity="0.25"></line><line x1="765.9019166657057" y1="0" x2="765.9019166657057" y2="376.8999996185303" fill="rgb(0, 0, 0)" stroke="rgb(189, 189, 189)" stroke-width="1px" opacity="0.25"></line><line x1="1033.0605254546465" y1="0" x2="1033.0605254546465" y2="376.8999996185303" fill="rgb(0, 0, 0)" stroke="rgb(189, 189, 189)" stroke-width="1px" opacity="0.25"></line><line x1="1300.2191342435876" y1="0" x2="1300.2191342435876" y2="376.8999996185303" fill="rgb(0, 0, 0)" stroke="rgb(189, 189, 189)" stroke-width="1px" opacity="0.25"></line><line x1="1567.3777430325283" y1="0" x2="1567.3777430325283" y2="376.8999996185303" fill="rgb(0, 0, 0)" stroke="rgb(189, 189, 189)" stroke-width="1px" opacity="0.25"></line><line x1="1834.5363518214692" y1="0" x2="1834.5363518214692" y2="376.8999996185303" fill="rgb(0, 0, 0)" stroke="rgb(189, 189, 189)" stroke-width="1px" opacity="0.25"></line></g><g><line x1="0" y1="351.45143407426076" x2="2052.2339992523193" y2="351.45143407426076" fill="rgb(0, 0, 0)" stroke="rgb(189, 189, 189)" stroke-width="1px" opacity="0.25"></line><line x1="0" y1="309.1803775881236" x2="2052.2339992523193" y2="309.1803775881236" fill="rgb(0, 0, 0)" stroke="rgb(189, 189, 189)" stroke-width="1px" opacity="0.25"></line><line x1="0" y1="266.90932110198645" x2="2052.2339992523193" y2="266.90932110198645" fill="rgb(0, 0, 0)" stroke="rgb(189, 189, 189)" stroke-width="1px" opacity="0.25"></line><line x1="0" y1="224.63826461584927" x2="2052.2339992523193" y2="224.63826461584927" fill="rgb(0, 0, 0)" stroke="rgb(189, 189, 189)" stroke-width="1px" opacity="0.25"></line><line x1="0" y1="182.36720812971208" x2="2052.2339992523193" y2="182.36720812971208" fill="rgb(0, 0, 0)" stroke="rgb(189, 189, 189)" stroke-width="1px" opacity="0.25"></line><line x1="0" y1="140.09615164357493" x2="2052.2339992523193" y2="140.09615164357493" fill="rgb(0, 0, 0)" stroke="rgb(189, 189, 189)" stroke-width="1px" opacity="0.25"></line><line x1="0" y1="97.82509515743776" x2="2052.2339992523193" y2="97.82509515743776" fill="rgb(0, 0, 0)" stroke="rgb(189, 189, 189)" stroke-width="1px" opacity="0.25"></line><line x1="0" y1="55.55403867130059" x2="2052.2339992523193" y2="55.55403867130059" fill="rgb(0, 0, 0)" stroke="rgb(189, 189, 189)" stroke-width="1px" opacity="0.25"></line><line x1="0" y1="13.282982185163375" x2="2052.2339992523193" y2="13.282982185163375" fill="rgb(0, 0, 0)" stroke="rgb(189, 189, 189)" stroke-width="1px" opacity="0.25"></line></g></g></g><g><g><line x1="0" y1="2084.564750005885" x2="2052.2339992523193" y2="2084.564750005885" fill="rgb(0, 0, 0)" stroke="rgb(153, 153, 153)" stroke-width="1.5px"></line></g></g><g><g><line x1="231.58469908782376" y1="0" x2="231.58469908782376" y2="376.8999996185303" fill="rgb(0, 0, 0)" stroke="rgb(153, 153, 153)" stroke-width="1.5px"></line></g></g><g><g><g><g><g><path style="fill: none;" stroke="rgb(255, 112, 67)" stroke-width="2px" d="M295.7027651971695,386.4528100498899L301.0459373729484,318.159283100735L306.3891095487272,284.0047358958004L311.73228172450604,252.02490702991673L317.07545390028486,193.92688233273265L322.4186260760636,189.23604112202125L327.7617982518425,238.95879139930489L333.1049704276213,226.00096054492937L338.44814260340013,272.34906299904736L343.791314779179,285.15369138049016L349.13448695495777,251.36771772426775L354.4776591307366,236.560041777787L359.82083130651546,190.38326599503077L365.1640034822943,161.51665052062972L370.5071756580731,146.4988255120265L375.85034783385186,105.59744790622635L381.1935200096307,71.99735195750696L386.53669218540955,80.46587103123717L391.87986436118837,55.754251236017154L397.22303653696713,46.280955181706375L402.56620871274595,54.05714007017362L407.9093808885248,89.64394672186458L413.25255306430364,91.76494299098377L418.59572524008246,89.36649392818285L423.9388974158612,82.39115188994002L429.28206959164004,56.3695557558261L434.6252417674189,61.06671342645212L439.96841394319773,98.51359224533043L445.31158611897655,91.07431487431049L450.6547582947553,89.07389406717486L455.99793047053413,90.50997107090309L461.341102646313,97.47639736974175L466.6842748220918,87.23400284123733L472.02744699787064,82.15192158990489L477.3706191736494,87.62589968658L482.7137913494283,68.96514785581438L488.0569635252071,81.42942010246414L493.4001357009859,73.46456101730877L498.74330787676473,68.66584390865873L504.0864800525435,80.68649024958938L509.42965222832237,84.35186581916737L514.7728244041011,84.73565970970346L520.11599657988,93.00044250032572L525.4591687556588,98.5238851688084L530.8023409314376,80.59490017091971L536.1455131072164,111.55811827666517L541.4886852829952,92.87345752235662L546.8318574587742,112.26422016435909L552.175029634553,106.07273535146133L557.5182018103318,124.39734740261294L562.8613739861106,107.05213704136425L568.2045461618893,125.61864146056037L573.5477183376681,105.45251040973397L578.890890513447,111.2714614151452L584.2340626892258,113.8612438415681L589.5772348650046,138.67593345824264L594.9204070407834,132.9236799211877L600.2635792165623,143.1029633015633L605.6067513923412,157.71260400798604L610.94992356812,157.99418439586407L616.2930957438988,161.21787694497192L621.6362679196775,181.73023986023756L626.9794400954563,175.74976253406334L632.3226122712351,159.99771131233655L637.665784447014,158.3885175034965L643.0089566227928,149.6013464562425L648.3521287985717,180.29943215943806L653.6953009743505,160.0712529431946L659.0384731501293,153.3947008789798L664.3816453259082,135.9146123834411L669.7248175016869,182.75074559820504L675.0679896774657,159.9682284785897L680.4111618532445,154.11663193899093L685.7543340290233,143.7061830938923L691.0975062048021,110.24901768261059L696.4406783805811,133.99094922187803L701.7838505563599,161.05868121570668L707.1270227321387,148.00712174019324L712.4701949079175,157.83171809648204L717.8133670836963,166.2478654810248L723.156539259475,200.6621866601511L728.4997114352539,202.5398399471623L733.8428836110327,202.61758907036855L739.1860557868115,184.81036742387607L744.5292279625903,168.02151234275325L749.8724001383692,219.27135293875386L755.2155723141481,186.78966246010327L760.5587444899269,190.9798186638871L765.9019166657057,202.6035134004191L771.2450888414845,217.7029244205231L776.5882610172632,215.21807563607297L781.931433193042,217.38028194493998L787.2746053688209,227.54990935558683L792.6177775445997,256.1383063000106L797.9609497203786,241.77439408538177L803.3041218961574,234.48108080414283L808.6472940719362,234.05007323823924L813.9904662477151,230.53967531376583L819.3336384234939,255.28577430910735L824.6768105992726,224.49274139719404L830.0199827750514,213.1989893207535L835.3631549508302,214.93016229570233L840.706327126609,215.99066725421318L846.049499302388,193.41433195203643L851.3926714781668,217.33346049912916L856.7358436539456,241.2551368081007L862.0790158297244,270.6601759107055L867.4221880055032,252.32036244162734L872.7653601812821,250.75896252429115L878.1085323570608,242.48106113755944L883.4517045328396,274.3208287927531L888.7948767086184,264.75466266667274L894.1380488843972,254.56642707978116L899.4812210601762,252.33157909805203L904.824393235955,247.9666282370296L910.1675654117338,280.5259797469562L915.5107375875126,250.69870271436582L920.8539097632914,259.3262376304153L926.1970819390702,240.64834019406248L931.540254114849,243.8520484423136L936.8834262906278,247.33047727896135L942.2265984664066,240.82226066083564L947.5697706421855,243.81972413440445L952.9129428179643,259.96795394546433L958.2561149937432,241.4918396326027L963.599287169522,242.7068059604211L968.9424593453008,253.555013308205L974.2856315210796,259.2387181479609L979.6288036968583,266.1955662836667L984.9719758726371,258.84356241490775L990.315148048416,248.95033245560631L995.6583202241948,272.4659094200257L1001.0014923999737,244.08709038431084L1006.3446645757525,250.0120486674201L1011.6878367515313,249.8143192650016L1017.0310089273102,243.8544506261735L1022.374181103089,240.7443521509195L1027.717353278868,277.4274764250433L1033.0605254546465,258.40534936650715L1038.4036976304255,239.5220106681813L1043.7468698062041,240.03701073780152L1049.0900419819832,261.67736258143725L1054.4332141577618,261.39156055563706L1059.7763863335406,262.8841925868338L1065.1195585093194,293.50212440147465L1070.4627306850982,263.9244273108754L1075.8059028608773,244.03265098062468L1081.1490750366559,249.73196105566376L1086.492247212435,244.7849920012208L1091.8354193882135,256.1740443550322L1097.1785915639925,231.29283131235135L1102.5217637397711,232.38803054043473L1107.8649359155502,231.45172939333455L1113.2081080913288,266.8533709811709L1118.5512802671076,248.3132127679478L1123.8944524428866,254.41913999446618L1129.2376246186652,259.18217208242595L1134.5807967944443,297.52404579543355L1139.9239689702229,301.5829182072518L1145.267141146002,277.5600020414179L1150.6103133217805,273.65461149057603L1155.9534854975595,248.48335544441295L1161.2966576733381,253.48747587148884L1166.639829849117,295.0543536081818L1171.9830020248958,288.39909724457505L1177.3261742006746,280.5845460073166L1182.6693463764536,274.9657178611985L1188.0125185522322,258.79571309323103L1193.3556907280113,258.36546553749326L1198.6988629037899,289.5811810423576L1204.042035079569,287.0360834957505L1209.3852072553475,250.35572914046017L1214.7283794311263,243.96502584581046L1220.0715516069051,254.8446544958319L1225.414723782684,251.24256155003516L1230.757895958463,224.19952321854853L1236.1010681342416,245.50132444711568L1241.4442403100206,270.1113478450258L1246.7874124857992,313.7818479693124L1252.1305846615783,274.9227381419364L1257.4737568373569,284.097857877127L1262.816929013136,265.5163739843986L1268.1601011889145,246.47100829122476L1273.5032733646933,260.6357865927851L1278.8464455404724,269.81661750229165L1284.189617716251,289.11035928131275L1289.53278989203,292.5822438363808L1294.8759620678086,308.03007445512867L1300.2191342435876,283.60409160991753L1305.5623064193662,273.88150117046007L1310.9054785951453,294.1706548488109L1316.2486507709239,280.89392146689147L1321.5918229467027,273.0922287459776L1326.9349951224817,266.1462775840856L1332.2781672982603,277.0226776399925L1337.6213394740394,251.71977181029845L1342.964511649818,260.90167825205054L1348.307683825597,222.4619782754388L1353.6508560013756,223.94711820414514L1358.9940281771546,217.01970792457757L1364.3372003529332,220.03791186849915L1369.680372528712,229.8795996613652L1375.023544704491,253.02289055725677L1380.3667168802697,232.15385993793964L1385.7098890560487,245.31764252573066L1391.0530612318273,244.52530639943055L1396.3962334076064,278.2805852067726L1401.739405583385,280.3052623887195L1407.082577759164,302.8951518478615L1412.4257499349426,313.6643403562135L1417.7689221107216,295.63771753072257L1423.1120942865005,301.97991241791146L1428.455266462279,308.8247515454345L1433.798438638058,294.64621096612456L1439.1416108138367,280.7863180094211L1444.4847829896157,267.43760067344215L1449.8279551653943,266.80071445720216L1455.1711273411734,279.057393834944L1460.514299516952,302.0638700583966L1465.857471692731,328.48631373873496L1471.2006438685096,294.7292100367933L1476.5438160442884,298.9621807389428L1481.8869882200675,269.4395964373249L1487.230160395846,284.3970394240539L1492.573332571625,286.59862880262864L1497.9165047474037,261.49488308383593L1503.2596769231827,254.3636832852997L1508.6028490989613,302.4482217282776L1513.9460212747404,272.0060093103362L1519.289193450519,300.8159945885578L1524.6323656262978,285.08978447170875L1529.9755378020768,273.2622503623247L1535.3187099778554,255.61002737117292L1540.6618821536345,269.4259458631335L1546.005054329413,289.90751300921727L1551.348226505192,266.85120394155234L1556.6913986809707,260.7938584029836L1562.0345708567497,251.72695983611632L1567.3777430325283,277.1197431322788" fill="none"></path></g></g></g></g><g opacity="0.2"><g><g><g><path style="fill: none;" stroke="rgb(255, 112, 67)" stroke-width="2px" d="M290.35959302139076,405.24018599357714L295.7027651971695,234.55941109017664L301.0459373729484,215.9419828916924L306.3891095487272,232.83982740194358L311.73228172450604,204.0927548194465L317.07545390028486,106.82082051522633L322.4186260760636,182.20176431274592L327.7617982518425,313.53029221432155L333.1049704276213,206.56618825847568L338.44814260340013,341.86698028007504L343.791314779179,304.359931716402L349.13448695495777,200.68986898178875L354.4776591307366,214.348820209796L359.82083130651546,121.11864932882806L365.1640034822943,118.21693248057657L370.5071756580731,123.97215204328532L375.85034783385186,44.24548615294117L381.1935200096307,21.597259618489034L386.53669218540955,93.16864184112997L391.87986436118837,18.686835200923547L397.22303653696713,32.07101424168877L402.56620871274595,65.72141585567408L407.9093808885248,143.024152451052L413.25255306430364,94.94643724274002L418.59572524008246,85.76882043705878L423.9388974158612,71.92813901244253L429.28206959164004,17.337161957252235L434.6252417674189,68.11244988878732L439.96841394319773,154.68391026507638L445.31158611897655,79.91539884264208L450.6547582947553,86.07326286048189L455.99793047053413,92.66408657476825L461.341102646313,107.92603681297103L466.6842748220918,71.87041105291632L472.02744699787064,74.52879971422635L477.3706191736494,95.83686683073915L482.7137913494283,40.97402011141151L488.0569635252071,100.12582847173907L493.4001357009859,61.51727238984397L498.74330787676473,61.46776824578098L504.0864800525435,98.71745976083999L509.42965222832237,89.84992917350763L514.7728244041011,85.31135054550617L520.11599657988,105.39761668623676L525.4591687556588,106.80904917152405L530.8023409314376,53.701422674103505L536.1455131072164,158.00294543526593L541.4886852829952,64.84646639089982L546.8318574587742,141.35036412735928L552.175029634553,96.7855081321153L557.5182018103318,151.8842654793391L562.8613739861106,81.03432149949215L568.2045461618893,153.46839808935425L573.5477183376681,75.20331383349478L578.890890513447,119.9998879232616L584.2340626892258,117.74591748120217L589.5772348650046,175.89796788325467L594.9204070407834,124.29529961560517L600.2635792165623,158.37188837212614L605.6067513923412,179.62706506762055L610.94992356812,158.41655497768133L616.2930957438988,166.05341576863384L621.6362679196775,212.49878423313646L626.9794400954563,166.77904654480122L632.3226122712351,136.36963447974654L637.665784447014,155.97472679023633L643.0089566227928,136.4205898853618L648.3521287985717,226.3465607142308L653.6953009743505,129.72898411883L659.0384731501293,143.37987278265763L664.3816453259082,109.69447964013267L669.7248175016869,253.00494542035102L675.0679896774657,125.79445279916695L680.4111618532445,145.3392371295931L685.7543340290233,128.09050982624407L691.0975062048021,60.06326956568814L696.4406783805811,169.60384653077895L701.7838505563599,201.66027920644993L707.1270227321387,128.42978252692322L712.4701949079175,172.5686126309152L717.8133670836963,178.8720865578393L723.156539259475,252.28366842884066L728.4997114352539,205.3563198776793L733.8428836110327,202.73421275517765L739.1860557868115,158.099534954138L744.5292279625903,142.83822972106955L749.8724001383692,296.1461138327546L755.2155723141481,138.06712674212739L760.5587444899269,197.2650529695624L765.9019166657057,220.03905550521688L771.2450888414845,240.35204095067888L776.5882610172632,211.49080245939817L781.931433193042,220.6235914082406L787.2746053688209,242.80435047155737L792.6177775445997,299.02090171664616L797.9609497203786,220.2285257634384L803.3041218961574,223.54111088228422L808.6472940719362,233.40356188938384L813.9904662477151,225.27407842705546L819.3336384234939,292.4049228021193L824.6768105992726,178.30319202932407L830.0199827750514,196.25836120609287L835.3631549508302,217.5269217581255L840.706327126609,217.58142469197986L846.049499302388,159.54982899877112L851.3926714781668,253.21215331976768L856.7358436539456,277.13765127155796L862.0790158297244,314.7677345646123L867.4221880055032,224.8106422380099L872.7653601812821,248.41686264828652L878.1085323570608,230.0642090574616L883.4517045328396,322.0804802755434L888.7948767086184,250.40541347755234L894.1380488843972,239.28407369944415L899.4812210601762,248.97930712545806L904.824393235955,241.41920194549567L910.1675654117338,329.36500701184576L915.5107375875126,205.95778716548028L920.8539097632914,272.26754000448983L926.1970819390702,212.63149403953332L931.540254114849,248.65761081469054L936.8834262906278,252.54812053393277L942.2265984664066,231.05993573364682L947.5697706421855,248.31591934475748L952.9129428179643,284.190298662054L958.2561149937432,213.77766816331055L963.599287169522,244.52925545214902L968.9424593453008,269.82732432988075L974.2856315210796,267.76427540759516L979.6288036968583,276.63083848722596L984.9719758726371,247.81555661176918L990.315148048416,234.11048751665442L995.6583202241948,307.7392748666552L1001.0014923999737,201.5188618307391L1006.3446645757525,258.89948609208386L1011.6878367515313,249.51772516137427L1017.0310089273102,234.91464766793146L1022.374181103089,236.07920443803826L1027.717353278868,332.45216283622887L1033.0605254546465,229.87215877870267L1038.4036976304255,211.1970026206922L1043.7468698062041,240.80951084223153L1049.0900419819832,294.1378903468906L1054.4332141577618,260.9628575169367L1059.7763863335406,265.12314063362953L1065.1195585093194,339.4290221234363L1070.4627306850982,219.55788167497616L1075.8059028608773,214.19498648524853L1081.1490750366559,258.2809261682221L1086.492247212435,237.36453841955606L1091.8354193882135,273.2576228857493L1097.1785915639925,193.97101174832977L1102.5217637397711,234.03082938255957L1107.8649359155502,230.04727767268437L1113.2081080913288,319.9558333629254L1118.5512802671076,220.50297544811326L1123.8944524428866,263.5780308342438L1129.2376246186652,266.3267202143658L1134.5807967944443,355.0368563649455L1139.9239689702229,307.67122682497904L1145.267141146002,241.5256277926669L1150.6103133217805,267.7965256643137L1155.9534854975595,210.72647137516856L1161.2966576733381,260.99365651210286L1166.639829849117,357.40467021322144L1171.9830020248958,278.4162126991649L1177.3261742006746,268.862719151429L1182.6693463764536,266.53747564202155L1188.0125185522322,234.54070594127984L1193.3556907280113,257.7200942038865L1198.6988629037899,336.4047542996543L1204.042035079569,283.2184371758405L1209.3852072553475,195.3351976075244L1214.7283794311263,234.37897090383635L1220.0715516069051,271.16409747086465L1225.414723782684,245.8394221313401L1230.757895958463,183.63496572131825L1236.1010681342416,277.4540262899669L1241.4442403100206,307.02638294189165L1246.7874124857992,379.2875981557424L1252.1305846615783,216.63407340087244L1257.4737568373569,297.86053747991275L1262.816929013136,237.6441481453059L1268.1601011889145,217.90295975146375L1273.5032733646933,281.88295404512536L1278.8464455404724,283.58786386655146L1284.189617716251,318.0509719498442L1289.53278989203,297.7900706689827L1294.8759620678086,331.2018203832507L1300.2191342435876,246.96511734210105L1305.5623064193662,259.29761551127433L1310.9054785951453,324.60438536633706L1316.2486507709239,260.97882139401236L1321.5918229467027,261.3896896646067L1326.9349951224817,255.7273508412474L1332.2781672982603,293.3372777238526L1337.6213394740394,213.76541306575749L1342.964511649818,274.67453791467875L1348.307683825597,164.8024283105213L1353.6508560013756,226.17482809720454L1358.9940281771546,206.62859250522607L1364.3372003529332,224.56521778438173L1369.680372528712,244.64213135066393L1375.023544704491,287.7378269010944L1380.3667168802697,200.85031400896352L1385.7098890560487,265.06331640741666L1391.0530612318273,243.33680220998062L1396.3962334076064,328.91350341778605L1401.739405583385,283.34227816163974L1407.082577759164,336.77998603657466L1412.4257499349426,329.81812311874137L1417.7689221107216,268.5977832924861L1423.1120942865005,311.4932047486944L1428.455266462279,319.09201023671903L1433.798438638058,273.3784000971603L1439.1416108138367,259.9964785743653L1444.4847829896157,247.41452466947402L1449.8279551653943,265.8453851328415L1455.1711273411734,297.44241290155674L1460.514299516952,336.5735843935759L1465.857471692731,368.11997925924305L1471.2006438685096,244.0935544838814L1476.5438160442884,305.31163679216644L1481.8869882200675,225.15571998489838L1487.230160395846,306.8332039041476L1492.573332571625,289.9010128704911L1497.9165047474037,223.8392645056472L1503.2596769231827,243.66688358749502L1508.6028490989613,374.57502939274434L1513.9460212747404,226.3426906834246L1519.289193450519,344.03097250588974L1524.6323656262978,261.5004692964349L1529.9755378020768,255.52094919824864L1535.3187099778554,229.13169288444473L1540.6618821536345,290.14982360107473L1546.005054329413,320.629863728343L1551.348226505192,232.26674034005495L1556.6913986809707,251.70784009513093L1562.0345708567497,238.1266119858154L1567.3777430325283,315.2089180765221" fill="none"></path></g></g></g></g></g></g><g transform="translate(30, 376)" clip-path="url(#clip_1)"><clipPath id="clip_1"><rect width="2052" height="23"></rect></clipPath><g><g><line x1="231.58469908782376" y1="0" x2="231.58469908782376" y2="5" style="visibility: inherit;" fill="rgb(0, 0, 0)" stroke="rgb(204, 204, 204)" stroke-width="1px"></line><line x1="498.74330787676473" y1="0" x2="498.74330787676473" y2="5" style="visibility: inherit;" fill="rgb(0, 0, 0)" stroke="rgb(204, 204, 204)" stroke-width="1px"></line><line x1="765.9019166657057" y1="0" x2="765.9019166657057" y2="5" style="visibility: inherit;" fill="rgb(0, 0, 0)" stroke="rgb(204, 204, 204)" stroke-width="1px"></line><line x1="1033.0605254546465" y1="0" x2="1033.0605254546465" y2="5" style="visibility: inherit;" fill="rgb(0, 0, 0)" stroke="rgb(204, 204, 204)" stroke-width="1px"></line><line x1="1300.2191342435876" y1="0" x2="1300.2191342435876" y2="5" style="visibility: inherit;" fill="rgb(0, 0, 0)" stroke="rgb(204, 204, 204)" stroke-width="1px"></line><line x1="1567.3777430325283" y1="0" x2="1567.3777430325283" y2="5" style="visibility: inherit;" fill="rgb(0, 0, 0)" stroke="rgb(204, 204, 204)" stroke-width="1px"></line><line x1="1834.5363518214692" y1="0" x2="1834.5363518214692" y2="5" style="visibility: inherit;" fill="rgb(0, 0, 0)" stroke="rgb(204, 204, 204)" stroke-width="1px"></line></g><g transform="translate(0, 8)"><text style="text-anchor: middle; visibility: inherit; font-family: Roboto, sans-serif; font-size: 12px; font-weight: 200;" x="231.58469908782376" y="0" dx="0em" dy="0.95em" fill="rgb(255, 255, 255)" stroke="none" stroke-width="1px">0</text><text style="text-anchor: middle; visibility: inherit; font-family: Roboto, sans-serif; font-size: 12px; font-weight: 200;" x="498.74330787676473" y="0" dx="0em" dy="0.95em" fill="rgb(255, 255, 255)" stroke="none" stroke-width="1px">50</text><text style="text-anchor: middle; visibility: inherit; font-family: Roboto, sans-serif; font-size: 12px; font-weight: 200;" x="765.9019166657057" y="0" dx="0em" dy="0.95em" fill="rgb(255, 255, 255)" stroke="none" stroke-width="1px">100</text><text style="text-anchor: middle; visibility: inherit; font-family: Roboto, sans-serif; font-size: 12px; font-weight: 200;" x="1033.0605254546465" y="0" dx="0em" dy="0.95em" fill="rgb(255, 255, 255)" stroke="none" stroke-width="1px">150</text><text style="text-anchor: middle; visibility: inherit; font-family: Roboto, sans-serif; font-size: 12px; font-weight: 200;" x="1300.2191342435876" y="0" dx="0em" dy="0.95em" fill="rgb(255, 255, 255)" stroke="none" stroke-width="1px">200</text><text style="text-anchor: middle; visibility: inherit; font-family: Roboto, sans-serif; font-size: 12px; font-weight: 200;" x="1567.3777430325283" y="0" dx="0em" dy="0.95em" fill="rgb(255, 255, 255)" stroke="none" stroke-width="1px">250</text><text style="text-anchor: middle; visibility: inherit; font-family: Roboto, sans-serif; font-size: 12px; font-weight: 200;" x="1834.5363518214692" y="0" dx="0em" dy="0.95em" fill="rgb(255, 255, 255)" stroke="none" stroke-width="1px">300</text></g><line x1="0" y1="0" x2="2052.2339992523193" y2="0" fill="rgb(0, 0, 0)" stroke="rgb(204, 204, 204)" stroke-width="1px"></line></g></g></g></g></svg>