<svg viewBox="0 0 2083 400" xmlns="http://www.w3.org/2000/svg"><g><g><g><g><g><line x1="41.149001121520996" y1="350.60180649327935" x2="36.149001121520996" y2="350.60180649327935" style="visibility: inherit;" fill="rgb(0, 0, 0)" stroke="rgb(204, 204, 204)" stroke-width="1px"></line><line x1="41.149001121520996" y1="310.3763194647351" x2="36.149001121520996" y2="310.3763194647351" style="visibility: inherit;" fill="rgb(0, 0, 0)" stroke="rgb(204, 204, 204)" stroke-width="1px"></line><line x1="41.149001121520996" y1="270.15083243619074" x2="36.149001121520996" y2="270.15083243619074" style="visibility: inherit;" fill="rgb(0, 0, 0)" stroke="rgb(204, 204, 204)" stroke-width="1px"></line><line x1="41.149001121520996" y1="229.92534540764643" x2="36.149001121520996" y2="229.92534540764643" style="visibility: inherit;" fill="rgb(0, 0, 0)" stroke="rgb(204, 204, 204)" stroke-width="1px"></line><line x1="41.149001121520996" y1="189.69985837910204" x2="36.149001121520996" y2="189.69985837910204" style="visibility: inherit;" fill="rgb(0, 0, 0)" stroke="rgb(204, 204, 204)" stroke-width="1px"></line><line x1="41.149001121520996" y1="149.4743713505577" x2="36.149001121520996" y2="149.4743713505577" style="visibility: inherit;" fill="rgb(0, 0, 0)" stroke="rgb(204, 204, 204)" stroke-width="1px"></line><line x1="41.149001121520996" y1="109.24888432201338" x2="36.149001121520996" y2="109.24888432201338" style="visibility: inherit;" fill="rgb(0, 0, 0)" stroke="rgb(204, 204, 204)" stroke-width="1px"></line><line x1="41.149001121520996" y1="69.02339729346905" x2="36.149001121520996" y2="69.02339729346905" style="visibility: inherit;" fill="rgb(0, 0, 0)" stroke="rgb(204, 204, 204)" stroke-width="1px"></line><line x1="41.149001121520996" y1="28.797910264924756" x2="36.149001121520996" y2="28.797910264924756" style="visibility: inherit;" fill="rgb(0, 0, 0)" stroke="rgb(204, 204, 204)" stroke-width="1px"></line></g><g transform="translate(31.149001121520996, 0)"><text style="text-anchor: end; visibility: inherit; font-family: Roboto, sans-serif; font-size: 12px; font-weight: 200;" x="0" y="350.60180649327935" dx="0em" dy="0.3em" fill="rgb(255, 255, 255)" stroke="none" stroke-width="1px">1.5</text><text style="text-anchor: end; visibility: inherit; font-family: Roboto, sans-serif; font-size: 12px; font-weight: 200;" x="0" y="310.3763194647351" dx="0em" dy="0.3em" fill="rgb(255, 255, 255)" stroke="none" stroke-width="1px">2</text><text style="text-anchor: end; visibility: inherit; font-family: Roboto, sans-serif; font-size: 12px; font-weight: 200;" x="0" y="270.15083243619074" dx="0em" dy="0.3em" fill="rgb(255, 255, 255)" stroke="none" stroke-width="1px">2.5</text><text style="text-anchor: end; visibility: inherit; font-family: Roboto, sans-serif; font-size: 12px; font-weight: 200;" x="0" y="229.92534540764643" dx="0em" dy="0.3em" fill="rgb(255, 255, 255)" stroke="none" stroke-width="1px">3</text><text style="text-anchor: end; visibility: inherit; font-family: Roboto, sans-serif; font-size: 12px; font-weight: 200;" x="0" y="189.69985837910204" dx="0em" dy="0.3em" fill="rgb(255, 255, 255)" stroke="none" stroke-width="1px">3.5</text><text style="text-anchor: end; visibility: inherit; font-family: Roboto, sans-serif; font-size: 12px; font-weight: 200;" x="0" y="149.4743713505577" dx="0em" dy="0.3em" fill="rgb(255, 255, 255)" stroke="none" stroke-width="1px">4</text><text style="text-anchor: end; visibility: inherit; font-family: Roboto, sans-serif; font-size: 12px; font-weight: 200;" x="0" y="109.24888432201338" dx="0em" dy="0.3em" fill="rgb(255, 255, 255)" stroke="none" stroke-width="1px">4.5</text><text style="text-anchor: end; visibility: inherit; font-family: Roboto, sans-serif; font-size: 12px; font-weight: 200;" x="0" y="69.02339729346905" dx="0em" dy="0.3em" fill="rgb(255, 255, 255)" stroke="none" stroke-width="1px">5</text><text style="text-anchor: end; visibility: inherit; font-family: Roboto, sans-serif; font-size: 12px; font-weight: 200;" x="0" y="28.797910264924756" dx="0em" dy="0.3em" fill="rgb(255, 255, 255)" stroke="none" stroke-width="1px">5.5</text></g><line x1="41.149001121520996" y1="0" x2="41.149001121520996" y2="376.8999996185303" fill="rgb(0, 0, 0)" stroke="rgb(204, 204, 204)" stroke-width="1px"></line></g></g><g transform="translate(41, 0)" clip-path="url(#clip_0)"><clipPath id="clip_0"><rect width="2041" height="376"></rect></clipPath><g><g><g><line x1="68.24534605478648" y1="0" x2="68.24534605478648" y2="376.8999996185303" fill="rgb(0, 0, 0)" stroke="rgb(189, 189, 189)" stroke-width="1px" opacity="0.25"></line><line x1="242.58220135377678" y1="0" x2="242.58220135377678" y2="376.8999996185303" fill="rgb(0, 0, 0)" stroke="rgb(189, 189, 189)" stroke-width="1px" opacity="0.25"></line><line x1="416.91905665276715" y1="0" x2="416.91905665276715" y2="376.8999996185303" fill="rgb(0, 0, 0)" stroke="rgb(189, 189, 189)" stroke-width="1px" opacity="0.25"></line><line x1="591.2559119517574" y1="0" x2="591.2559119517574" y2="376.8999996185303" fill="rgb(0, 0, 0)" stroke="rgb(189, 189, 189)" stroke-width="1px" opacity="0.25"></line><line x1="765.5927672507478" y1="0" x2="765.5927672507478" y2="376.8999996185303" fill="rgb(0, 0, 0)" stroke="rgb(189, 189, 189)" stroke-width="1px" opacity="0.25"></line><line x1="939.9296225497382" y1="0" x2="939.9296225497382" y2="376.8999996185303" fill="rgb(0, 0, 0)" stroke="rgb(189, 189, 189)" stroke-width="1px" opacity="0.25"></line><line x1="1114.2664778487283" y1="0" x2="1114.2664778487283" y2="376.8999996185303" fill="rgb(0, 0, 0)" stroke="rgb(189, 189, 189)" stroke-width="1px" opacity="0.25"></line><line x1="1288.6033331477188" y1="0" x2="1288.6033331477188" y2="376.8999996185303" fill="rgb(0, 0, 0)" stroke="rgb(189, 189, 189)" stroke-width="1px" opacity="0.25"></line><line x1="1462.940188446709" y1="0" x2="1462.940188446709" y2="376.8999996185303" fill="rgb(0, 0, 0)" stroke="rgb(189, 189, 189)" stroke-width="1px" opacity="0.25"></line><line x1="1637.2770437456993" y1="0" x2="1637.2770437456993" y2="376.8999996185303" fill="rgb(0, 0, 0)" stroke="rgb(189, 189, 189)" stroke-width="1px" opacity="0.25"></line><line x1="1811.6138990446896" y1="0" x2="1811.6138990446896" y2="376.8999996185303" fill="rgb(0, 0, 0)" stroke="rgb(189, 189, 189)" stroke-width="1px" opacity="0.25"></line><line x1="1985.95075434368" y1="0" x2="1985.95075434368" y2="376.8999996185303" fill="rgb(0, 0, 0)" stroke="rgb(189, 189, 189)" stroke-width="1px" opacity="0.25"></line></g><g><line x1="0" y1="350.60180649327935" x2="2041.850998878479" y2="350.60180649327935" fill="rgb(0, 0, 0)" stroke="rgb(189, 189, 189)" stroke-width="1px" opacity="0.25"></line><line x1="0" y1="310.3763194647351" x2="2041.850998878479" y2="310.3763194647351" fill="rgb(0, 0, 0)" stroke="rgb(189, 189, 189)" stroke-width="1px" opacity="0.25"></line><line x1="0" y1="270.15083243619074" x2="2041.850998878479" y2="270.15083243619074" fill="rgb(0, 0, 0)" stroke="rgb(189, 189, 189)" stroke-width="1px" opacity="0.25"></line><line x1="0" y1="229.92534540764643" x2="2041.850998878479" y2="229.92534540764643" fill="rgb(0, 0, 0)" stroke="rgb(189, 189, 189)" stroke-width="1px" opacity="0.25"></line><line x1="0" y1="189.69985837910204" x2="2041.850998878479" y2="189.69985837910204" fill="rgb(0, 0, 0)" stroke="rgb(189, 189, 189)" stroke-width="1px" opacity="0.25"></line><line x1="0" y1="149.4743713505577" x2="2041.850998878479" y2="149.4743713505577" fill="rgb(0, 0, 0)" stroke="rgb(189, 189, 189)" stroke-width="1px" opacity="0.25"></line><line x1="0" y1="109.24888432201338" x2="2041.850998878479" y2="109.24888432201338" fill="rgb(0, 0, 0)" stroke="rgb(189, 189, 189)" stroke-width="1px" opacity="0.25"></line><line x1="0" y1="69.02339729346905" x2="2041.850998878479" y2="69.02339729346905" fill="rgb(0, 0, 0)" stroke="rgb(189, 189, 189)" stroke-width="1px" opacity="0.25"></line><line x1="0" y1="28.797910264924756" x2="2041.850998878479" y2="28.797910264924756" fill="rgb(0, 0, 0)" stroke="rgb(189, 189, 189)" stroke-width="1px" opacity="0.25"></line></g></g></g><g><g><line x1="0" y1="471.27826757891245" x2="2041.850998878479" y2="471.27826757891245" fill="rgb(0, 0, 0)" stroke="rgb(153, 153, 153)" stroke-width="1.5px"></line></g></g><g><g><line x1="242.58220135377678" y1="0" x2="242.58220135377678" y2="376.8999996185303" fill="rgb(0, 0, 0)" stroke="rgb(153, 153, 153)" stroke-width="1.5px"></line></g></g><g><g><g><g><g><path style="fill: none;" stroke="rgb(255, 112, 67)" stroke-width="2px" d="M242.58220135377678,14.907600482199925L248.2948714282141,16.16177459605535L254.0075415026514,20.200372301843323L259.7202115770887,23.747781737548355L265.4328816515261,28.19006149338566L271.14555172596334,32.73924221260261L276.8582218004007,37.833581714116036L282.57089187483797,42.675464763947005L288.28356194927534,47.96322696134552L293.99623202371265,53.23716293353997L299.7089020981499,58.50162199898707L305.4215721725873,64.56804440275548L311.13424224702453,70.06682063308631L316.8469123214619,76.27427965682271L322.55958239589916,81.44318270243018L328.2722524703365,86.68629128341475L333.9849225447738,91.93659710809789L339.69759261921115,96.87963392566922L345.4102626936484,102.2277911285742L351.1229327680858,106.38281028193197L356.8356028425231,111.88842096256883L362.5482729169604,116.37855433404344L368.2609429913977,120.18243370272691L373.973613065835,123.21412457209469L379.68628314027234,126.33081310394867L385.39895321470965,128.93778678480206L391.11162328914696,130.99645501177037L396.8242933635843,132.82003618430952L402.5369634380216,134.16527131665507L408.24963351245896,135.71127997362595L413.9623035868962,138.58801309660848L419.6749736613336,141.4873473405816L425.38764373577084,144.44738156119382L431.1003138102082,147.67202841138297L436.81298388464546,150.76333145841042L442.52565395908283,153.23743728290543L448.2383240335201,156.48666082265703L453.95099410795746,159.65237819064998L459.6636641823947,161.5406452578691L465.3763342568321,163.7859504504173L471.0890043312694,166.0837289230379L476.8016744057067,168.0357776818283L482.514344480144,171.13738347369156L488.22701455458133,173.25360011599614L493.93968462901864,176.13833252213303L499.6523547034559,179.38012893259054L505.36502477789327,182.2075868040013L511.0776948523306,184.99329720308708L516.7903649267678,187.56515663145834L522.5030350012051,190.66722013466344L528.2157050756425,192.80334508297287L533.9283751500799,194.47598267984318L539.6410452245171,195.63789294149979L545.3537152989544,196.8396530285977L551.0663853733918,197.91796684338274L556.7790554478291,199.82618306140486L562.4917255222664,201.18890161721316L568.2043955967036,202.61250679378153L573.917065671141,203.86644044599134L579.6297357455784,205.0231285908308L585.3424058200156,206.54865347260986L591.055075894453,208.2186412828231L596.7677459688903,210.11844319615173L602.4804160433276,211.42714022227108L608.1930861177649,212.85325725842978L613.9057561922023,213.52471308964581L619.6184262666395,214.32635972228448L625.3310963410769,214.55056772600102L631.0437664155141,215.04376201286738L636.7564364899515,215.67559172301125L642.4691065643889,216.4768021322292L648.1817766388261,217.0710339043219L653.8944467132634,218.15067391132953L659.6071167877008,219.2466873576909L665.3197868621381,219.91436161794041L671.0324569365754,220.3963626950644L676.7451270110126,220.32057946922367L682.45779708545,220.50913316297354L688.1704671598874,221.12269017741636L693.8831372343247,222.3077204536829L699.5958073087619,223.29453080937054L705.3084773831993,224.4661442935225L711.0211474576366,226.3445244881955L716.7338175320739,227.85925446171294L722.4464876065111,229.30228348860183L728.1591576809485,230.57160791115246L733.871827755386,231.73077113135707L739.5844978298231,232.6270558439397L745.2971679042605,233.10096159084165L751.0098379786979,233.57750640074428L756.7225080531352,233.92508871533605L762.4351781275725,234.561750506188L768.1478482020098,235.15794572119887L773.8605182764471,235.69970077542084L779.5731883508845,236.6735475308902L785.2858584253217,237.3982605548411L790.998528499759,238.00257941877737L796.7111985741964,238.80867397919036L802.4238686486337,239.4193089812619L808.136538723071,240.42513871886865L813.8492087975084,241.38172053685338L819.5618788719456,241.9523091152315L825.274548946383,242.2433492325405L830.9872190208202,242.49202733445054L836.6998890952576,242.81776083850136L842.4125591696949,243.20902367680017L848.1252292441322,243.69995523582733L853.8378993185695,244.64704435432824L859.5505693930069,245.92013845059114L865.2632394674441,247.02959061866727L870.9759095418815,248.11117520120737L876.6885796163187,249.067382664414L882.4012496907561,250.4468398639102L888.1139197651935,251.45745495522752L893.8265898396307,252.10679713792595L899.539259914068,252.42366806929672L905.2519299885054,252.58927730127277L910.9646000629427,252.8843735074936L916.6772701373799,253.12979233989623L922.3899402118172,253.46550854095082L928.1026102862546,253.92550590729527L933.815280360692,254.50441078841465L939.5279504351292,254.84076683632136L945.2406205095665,255.11032010911117L950.9532905840039,255.61525399343952L956.6659606584412,256.3314652819702L962.3786307328785,257.19053971403133L968.0913008073157,258.34414414596665L973.8039708817531,258.93455539960786L979.5166409561905,259.0975521679744L985.2293110306277,258.82550205352385L990.9419811050651,258.71495837466694L996.6546511795024,258.7920293751018L1002.3673212539397,259.05689709226004L1008.079991328377,259.49399602974376L1013.7926614028144,260.50782095025835L1019.5053314772516,261.23511486951145L1025.218001551689,261.7624398834848L1030.9306716261262,262.0236779883638L1036.6433417005637,262.2194196745651L1042.356011775001,262.60150887499043L1048.0686818494382,262.8364860077112L1053.7813519238757,263.078678952267L1059.4940219983127,263.45669869497857L1065.20669207275,263.95685523404995L1070.9193621471875,264.88844928458803L1076.6320322216247,265.68315563478814L1082.3447022960622,266.3320560942072L1088.0573723704995,266.92773029752016L1093.7700424449367,267.37480986306986L1099.4827125193742,267.6356690785333L1105.1953825938115,267.8565330498334L1110.9080526682485,268.2077379287328L1116.620722742686,268.75628442238605L1122.3333928171232,269.29105572999043L1128.0460628915605,270.2997647675825L1133.758732965998,271.09301776479293L1139.4714030404352,272.01906339914876L1145.1840731148727,273.27663123667804L1150.89674318931,274.13486446261606L1156.6094132637472,274.71036267323313L1162.3220833381845,275.15694498855447L1168.0347534126217,275.6948325243623L1173.747423487059,276.2983673147828L1179.4600935614965,277.12189881914856L1185.1727636359337,277.9246017611296L1190.8854337103712,278.46345965097356L1196.5981037848085,278.90950981197267L1202.3107738592457,279.6030119690605L1208.0234439336832,280.0535393345368L1213.7361140081202,280.4274255187988L1219.4487840825575,280.75132967248965L1225.161454156995,280.87069744484734L1230.8741242314322,280.86400589320067L1236.5867943058697,281.2519433300601L1242.299464380307,281.7137500320331L1248.0121344547442,282.49732004959725L1253.7248045291817,283.06362795644L1259.4374746036187,283.58004675708924L1265.150144678056,283.77174303483906L1270.8628147524935,283.6891350509699L1276.5754848269307,283.4639182716593L1282.2881549013682,283.2006283882227L1288.0008249758055,283.24864312769773L1293.7134950502427,283.41965995670273L1299.4261651246802,283.449980675218L1305.1388351991175,283.48894997302506L1310.8515052735545,283.56929146986494L1316.564175347992,283.9912497964487L1322.2768454224292,284.29840781828034L1327.9895154968665,284.4431053606895L1333.702185571304,284.60756860215537L1339.4148556457412,284.87064312116223L1345.1275257201787,284.997069343228L1350.840195794616,285.29261665734964L1356.5528658690532,285.6417224714136L1362.2655359434905,286.0780358925173L1367.9782060179277,286.5676866350105L1373.690876092365,286.77396565452534L1379.4035461668025,287.4383919445468L1385.1162162412397,288.0845517594788L1390.8288863156772,288.52538671001474L1396.5415563901145,289.17966875820025L1402.2542264645517,289.77049287465763L1407.9668965389892,290.6367135920035L1413.6795666134262,291.78012029868205L1419.3922366878635,292.78261257488884L1425.104906762301,293.9053633123232L1430.8175768367382,295.17567350090593L1436.5302469111757,296.3985950727254L1442.242916985613,297.30844500416686L1447.9555870600502,297.94854137942167L1453.6682571344877,298.26671628199875L1459.380927208925,298.55486125623696L1465.093597283362,298.787447206724L1470.8062673577995,299.2161793097755L1476.5189374322367,299.8822962599618L1482.2316075066742,300.6361475590902L1487.9442775811115,301.5245270223354L1493.6569476555487,302.6907120663759L1499.3696177299862,303.5489195891983L1505.0822878044235,304.25886123646944L1510.7949578788607,304.7497654418672L1516.507627953298,305.1173032050485L1522.2202980277352,305.363651170677L1527.9329681021725,305.60668214081784L1533.64563817661,306.11677873396275L1539.3583082510472,306.68139666315864L1545.0709783254847,306.93418280284607L1550.783648399922,307.09365732027436L1556.4963184743592,307.14552493851875L1562.2089885487967,307.4160628378661L1567.9216586232337,307.9623663188452L1573.634328697671,308.60180908030446L1579.3469987721085,309.6954788894059L1585.0596688465457,310.552831994458L1590.7723389209832,311.460565749231L1596.4850089954205,311.9518597856433L1602.1976790698577,312.3554462235579L1607.9103491442952,312.68879226561677L1613.6230192187325,313.0625222705449L1619.3356892931695,313.12608865091875L1625.048359367607,313.3231201042837L1630.7610294420442,313.8380021994502L1636.4736995164817,314.39914635276926L1642.186369590919,314.53414839317696L1647.8990396653562,314.87365204770975L1653.6117097397937,315.47917715443896L1659.324379814231,315.96408062135527L1665.0370498886682,316.8277944216065" fill="none"></path></g></g></g></g><g opacity="0.2"><g><g><g><path style="fill: none;" stroke="rgb(255, 112, 67)" stroke-width="2px" d="M242.58220135377678,14.907600482199925L248.2948714282141,16.914279064368642L254.0075415026514,24.077426099399908L259.7202115770887,27.91953523393741L265.4328816515261,33.989901942606906L271.14555172596334,39.032396852338785L276.8582218004007,45.11856871071204L282.57089187483797,49.734976732678L288.28356194927534,55.761649107579075L293.99623202371265,61.06834320665496L299.7089020981499,66.35056234089834L305.4215721725873,73.6346648055799L311.13424224702453,78.29703052013106L316.8469123214619,85.57330713398844L322.55958239589916,89.19046141934443L328.2722524703365,94.54725630850064L333.9849225447738,99.80983409165586L339.69759261921115,104.2929341155137L345.4102626936484,110.24921219501101L351.1229327680858,112.61495922676005L356.8356028425231,120.14653504274962L362.5482729169604,123.11360664150423L368.2609429913977,125.88817765478939L373.973613065835,127.76162496287768L379.68628314027234,131.00582374964176L385.39895321470965,132.84823618853022L391.11162328914696,134.0844520846549L396.8242933635843,135.55540514349138L402.5369634380216,136.18312277602166L408.24963351245896,138.0302921046268L413.9623035868962,142.9031118271264L419.6749736613336,145.83634812967057L425.38764373577084,148.8874325387437L431.1003138102082,152.50899845569174L436.81298388464546,155.40028589609744L442.52565395908283,156.94859595585046L448.2383240335201,161.36049608201373L453.95099410795746,164.40095421325205L459.6636641823947,164.3730458481805L465.3763342568321,167.15390823173607L471.0890043312694,169.53039662736145L476.8016744057067,170.96385081766536L482.514344480144,175.78979215924753L488.22701455458133,176.42792507853648L493.93968462901864,180.46543113058868L499.6523547034559,184.24282354777134L505.36502477789327,186.44877361085298L511.0776948523306,189.1718628015594L516.7903649267678,191.42294577392855L522.5030350012051,195.32031538940845L528.2157050756425,196.0075325054109L533.9283751500799,196.98493907513668L539.6410452245171,197.38075833397963L545.3537152989544,198.64229315924138L551.0663853733918,199.53543756555868L556.7790554478291,202.68850738843622L562.4917255222664,203.23297945092492L568.2043955967036,204.74791455863357L573.917065671141,205.74734092430583L579.6297357455784,206.75816080808977L585.3424058200156,208.8369407952784L591.055075894453,210.72362299814284L596.7677459688903,212.96814606614473L602.4804160433276,213.39018576145006L608.1930861177649,214.9924328126678L613.9057561922023,214.53189683646994L619.6184262666395,215.52882967124233L625.3310963410769,214.88687973157593L631.0437664155141,215.78355344316688L636.7564364899515,216.6233362882271L642.4691065643889,217.67861774605626L648.1817766388261,217.96238156246076L653.8944467132634,219.7701339218411L659.6071167877008,220.89070752723288L665.3197868621381,220.9158730083146L671.0324569365754,221.11936431075037L676.7451270110126,220.2069046304626L682.45779708545,220.79196370359827L688.1704671598874,222.04302569908063L693.8831372343247,224.08526586808276L699.5958073087619,224.77474634290198L705.3084773831993,226.22356451975043L711.0211474576366,229.16209478020508L716.7338175320739,230.13134942198897L722.4464876065111,231.46682702893517L728.1591576809485,232.47559454497843L733.871827755386,233.46951596166403L739.5844978298231,233.97148291281357L745.2971679042605,233.8118202111946L751.0098379786979,234.29232361559832L756.7225080531352,234.44646218722374L762.4351781275725,235.51674319246592L768.1478482020098,236.0522385437151L773.8605182764471,236.5123333567538L779.5731883508845,238.1343176640943L785.2858584253217,238.4853300907674L790.998528499759,238.90905771468192L796.7111985741964,240.01781581980975L802.4238686486337,240.3352614843693L808.136538723071,241.9338833252788L813.8492087975084,242.81659326383047L819.5618788719456,242.80819198279866L825.274548946383,242.67990940850413L830.9872190208202,242.86504448731552L836.6998890952576,243.30636109457754L842.4125591696949,243.79591793424845L848.1252292441322,244.43635257436802L853.8378993185695,246.0676780320796L859.5505693930069,247.82977959498552L865.2632394674441,248.6937688707813L870.9759095418815,249.73355207501754L876.6885796163187,250.50169385922393L882.4012496907561,252.51602566315455L888.1139197651935,252.9733775922034L893.8265898396307,253.0808104119737L899.539259914068,252.89897446635288L905.2519299885054,252.83769114923697L910.9646000629427,253.32701781682485L916.6772701373799,253.4979205885001L922.3899402118172,253.96908284253277L928.1026102862546,254.61550195681207L933.815280360692,255.3727681100937L939.5279504351292,255.34530090818134L945.2406205095665,255.51465001829592L950.9532905840039,256.37265481993205L956.6659606584412,257.4057822147663L962.3786307328785,258.479151362123L968.0913008073157,260.0745507938696L973.8039708817531,259.8201722800697L979.5166409561905,259.3420473205243L985.2293110306277,258.4174268818479L990.9419811050651,258.5491428563815L996.6546511795024,258.9076358757542L1002.3673212539397,259.45419866799733L1008.079991328377,260.1496444359693L1013.7926614028144,262.0285583310304L1019.5053314772516,262.32605574839107L1025.218001551689,262.55342740444473L1030.9306716261262,262.41553514568227L1036.6433417005637,262.513032203867L1042.356011775001,263.1746426756285L1048.0686818494382,263.1889517067923L1053.7813519238757,263.4419683691008L1059.4940219983127,264.0237283090459L1065.20669207275,264.707090042657L1070.9193621471875,266.2858403603952L1076.6320322216247,266.8752151600884L1082.3447022960622,267.30540678333557L1088.0573723704995,267.8212416024897L1093.7700424449367,268.0454292113944L1099.4827125193742,268.02695790172845L1105.1953825938115,268.18782900678343L1110.9080526682485,268.734545247082L1116.620722742686,269.57910416286586L1122.3333928171232,270.09321269139696L1128.0460628915605,271.8128283239706L1133.758732965998,272.28289726060876L1139.4714030404352,273.4081318506826L1145.1840731148727,275.16298299297193L1150.89674318931,275.4222143015231L1156.6094132637472,275.5736099891587L1162.3220833381845,275.82681846153645L1168.0347534126217,276.5016638280741L1173.747423487059,277.2036695004134L1179.4600935614965,278.35719607569723L1185.1727636359337,279.1286561741012L1190.8854337103712,279.2717464857395L1196.5981037848085,279.5785850534712L1202.3107738592457,280.64326520469217L1208.0234439336832,280.7293303827513L1213.7361140081202,280.9882547951918L1219.4487840825575,281.2371859030258L1225.161454156995,281.04974910338376L1230.8741242314322,280.85396856573067L1236.5867943058697,281.8338494853494L1242.299464380307,282.40646008499266L1248.0121344547442,283.6726750759434L1253.7248045291817,283.9130898167041L1259.4374746036187,284.3546749580631L1265.150144678056,284.0592874514638L1270.8628147524935,283.5652230751662L1276.5754848269307,283.1260931026933L1282.2881549013682,282.8056935630678L1288.0008249758055,283.3206652369104L1293.7134950502427,283.67618520021017L1299.4261651246802,283.4954617529908L1305.1388351991175,283.54740391973564L1310.8515052735545,283.68980371512475L1316.564175347992,284.62418728632446L1322.2768454224292,284.7591448510278L1327.9895154968665,284.6601516743032L1333.702185571304,284.8542634643542L1339.4148556457412,285.26525489967247L1345.1275257201787,285.1867086763267L1350.840195794616,285.7359376285321L1356.5528658690532,286.16538119250936L1362.2655359434905,286.73250602417295L1367.9782060179277,287.3021627487503L1373.690876092365,287.0833841837976L1379.4035461668025,288.4350313795791L1385.1162162412397,289.0537914818768L1390.8288863156772,289.1866391358187L1396.5415563901145,290.1610918304785L1402.2542264645517,290.6567290493437L1407.9668965389892,291.9360446680222L1413.6795666134262,293.4952303587L1419.3922366878635,294.286350989199L1425.104906762301,295.58948941847467L1430.8175768367382,297.08113878378L1436.5302469111757,298.23297743045464L1442.242916985613,298.67321990132905L1447.9555870600502,298.90868594230386L1453.6682571344877,298.7439786358644L1459.380927208925,298.9870787175942L1465.093597283362,299.1363261324545L1470.8062673577995,299.85927746435266L1476.5189374322367,300.88147168524137L1482.2316075066742,301.7669245077829L1487.9442775811115,302.85709621720326L1493.6569476555487,304.43998963243666L1499.3696177299862,304.83623087343193L1505.0822878044235,305.32377370737606L1510.7949578788607,305.48612174996407L1516.507627953298,305.66860984982026L1522.2202980277352,305.7331731191198L1527.9329681021725,305.97122859602905L1533.64563817661,306.88192362368005L1539.3583082510472,307.5283235569524L1545.0709783254847,307.3133620123772L1550.783648399922,307.3328690964169L1556.4963184743592,307.2233263658852L1562.2089885487967,307.8218696868871L1567.9216586232337,308.78182154031384L1573.634328697671,309.5609732224935L1579.3469987721085,311.33598360305797L1585.0596688465457,311.8388616520362L1590.7723389209832,312.8221663813905L1596.4850089954205,312.68880084026165L1602.1976790698577,312.9608258804298L1607.9103491442952,313.18881132870507L1613.6230192187325,313.62311727793707L1619.3356892931695,313.22143822147945L1625.048359367607,313.61866728433114L1630.7610294420442,314.61032534220004L1636.4736995164817,315.2408625827478L1642.186369590919,314.73665145378845L1647.8990396653562,315.3829075295089L1653.6117097397937,316.38746481453285L1659.324379814231,316.6914358217296L1665.0370498886682,318.1233651219832" fill="none"></path></g></g></g></g></g></g><g transform="translate(41, 376)" clip-path="url(#clip_1)"><clipPath id="clip_1"><rect width="2041" height="23"></rect></clipPath><g><g><line x1="68.24534605478648" y1="0" x2="68.24534605478648" y2="5" style="visibility: inherit;" fill="rgb(0, 0, 0)" stroke="rgb(204, 204, 204)" stroke-width="1px"></line><line x1="242.58220135377678" y1="0" x2="242.58220135377678" y2="5" style="visibility: inherit;" fill="rgb(0, 0, 0)" stroke="rgb(204, 204, 204)" stroke-width="1px"></line><line x1="416.91905665276715" y1="0" x2="416.91905665276715" y2="5" style="visibility: inherit;" fill="rgb(0, 0, 0)" stroke="rgb(204, 204, 204)" stroke-width="1px"></line><line x1="591.2559119517574" y1="0" x2="591.2559119517574" y2="5" style="visibility: inherit;" fill="rgb(0, 0, 0)" stroke="rgb(204, 204, 204)" stroke-width="1px"></line><line x1="765.5927672507478" y1="0" x2="765.5927672507478" y2="5" style="visibility: inherit;" fill="rgb(0, 0, 0)" stroke="rgb(204, 204, 204)" stroke-width="1px"></line><line x1="939.9296225497382" y1="0" x2="939.9296225497382" y2="5" style="visibility: inherit;" fill="rgb(0, 0, 0)" stroke="rgb(204, 204, 204)" stroke-width="1px"></line><line x1="1114.2664778487283" y1="0" x2="1114.2664778487283" y2="5" style="visibility: inherit;" fill="rgb(0, 0, 0)" stroke="rgb(204, 204, 204)" stroke-width="1px"></line><line x1="1288.6033331477188" y1="0" x2="1288.6033331477188" y2="5" style="visibility: inherit;" fill="rgb(0, 0, 0)" stroke="rgb(204, 204, 204)" stroke-width="1px"></line><line x1="1462.940188446709" y1="0" x2="1462.940188446709" y2="5" style="visibility: inherit;" fill="rgb(0, 0, 0)" stroke="rgb(204, 204, 204)" stroke-width="1px"></line><line x1="1637.2770437456993" y1="0" x2="1637.2770437456993" y2="5" style="visibility: inherit;" fill="rgb(0, 0, 0)" stroke="rgb(204, 204, 204)" stroke-width="1px"></line><line x1="1811.6138990446896" y1="0" x2="1811.6138990446896" y2="5" style="visibility: inherit;" fill="rgb(0, 0, 0)" stroke="rgb(204, 204, 204)" stroke-width="1px"></line><line x1="1985.95075434368" y1="0" x2="1985.95075434368" y2="5" style="visibility: inherit;" fill="rgb(0, 0, 0)" stroke="rgb(204, 204, 204)" stroke-width="1px"></line></g><g transform="translate(0, 8)"><text style="text-anchor: middle; visibility: inherit; font-family: Roboto, sans-serif; font-size: 12px; font-weight: 200;" x="68.24534605478648" y="0" dx="0em" dy="0.95em" fill="rgb(255, 255, 255)" stroke="none" stroke-width="1px">-1M</text><text style="text-anchor: middle; visibility: inherit; font-family: Roboto, sans-serif; font-size: 12px; font-weight: 200;" x="242.58220135377678" y="0" dx="0em" dy="0.95em" fill="rgb(255, 255, 255)" stroke="none" stroke-width="1px">0</text><text style="text-anchor: middle; visibility: inherit; font-family: Roboto, sans-serif; font-size: 12px; font-weight: 200;" x="416.91905665276715" y="0" dx="0em" dy="0.95em" fill="rgb(255, 255, 255)" stroke="none" stroke-width="1px">1M</text><text style="text-anchor: middle; visibility: inherit; font-family: Roboto, sans-serif; font-size: 12px; font-weight: 200;" x="591.2559119517574" y="0" dx="0em" dy="0.95em" fill="rgb(255, 255, 255)" stroke="none" stroke-width="1px">2M</text><text style="text-anchor: middle; visibility: inherit; font-family: Roboto, sans-serif; font-size: 12px; font-weight: 200;" x="765.5927672507478" y="0" dx="0em" dy="0.95em" fill="rgb(255, 255, 255)" stroke="none" stroke-width="1px">3M</text><text style="text-anchor: middle; visibility: inherit; font-family: Roboto, sans-serif; font-size: 12px; font-weight: 200;" x="939.9296225497382" y="0" dx="0em" dy="0.95em" fill="rgb(255, 255, 255)" stroke="none" stroke-width="1px">4M</text><text style="text-anchor: middle; visibility: inherit; font-family: Roboto, sans-serif; font-size: 12px; font-weight: 200;" x="1114.2664778487283" y="0" dx="0em" dy="0.95em" fill="rgb(255, 255, 255)" stroke="none" stroke-width="1px">5M</text><text style="text-anchor: middle; visibility: inherit; font-family: Roboto, sans-serif; font-size: 12px; font-weight: 200;" x="1288.6033331477188" y="0" dx="0em" dy="0.95em" fill="rgb(255, 255, 255)" stroke="none" stroke-width="1px">6M</text><text style="text-anchor: middle; visibility: inherit; font-family: Roboto, sans-serif; font-size: 12px; font-weight: 200;" x="1462.940188446709" y="0" dx="0em" dy="0.95em" fill="rgb(255, 255, 255)" stroke="none" stroke-width="1px">7M</text><text style="text-anchor: middle; visibility: inherit; font-family: Roboto, sans-serif; font-size: 12px; font-weight: 200;" x="1637.2770437456993" y="0" dx="0em" dy="0.95em" fill="rgb(255, 255, 255)" stroke="none" stroke-width="1px">8M</text><text style="text-anchor: middle; visibility: inherit; font-family: Roboto, sans-serif; font-size: 12px; font-weight: 200;" x="1811.6138990446896" y="0" dx="0em" dy="0.95em" fill="rgb(255, 255, 255)" stroke="none" stroke-width="1px">9M</text><text style="text-anchor: middle; visibility: inherit; font-family: Roboto, sans-serif; font-size: 12px; font-weight: 200;" x="1985.95075434368" y="0" dx="0em" dy="0.95em" fill="rgb(255, 255, 255)" stroke="none" stroke-width="1px">10M</text></g><line x1="0" y1="0" x2="2041.850998878479" y2="0" fill="rgb(0, 0, 0)" stroke="rgb(204, 204, 204)" stroke-width="1px"></line></g></g></g></g></svg>