<svg viewBox="0 0 2083 400" xmlns="http://www.w3.org/2000/svg"><g><g><g><g><g><line x1="51.53200149536133" y1="354.0987040206174" x2="46.53200149536133" y2="354.0987040206174" style="visibility: inherit;" fill="rgb(0, 0, 0)" stroke="rgb(204, 204, 204)" stroke-width="1px"></line><line x1="51.53200149536133" y1="325.59503991288017" x2="46.53200149536133" y2="325.59503991288017" style="visibility: inherit;" fill="rgb(0, 0, 0)" stroke="rgb(204, 204, 204)" stroke-width="1px"></line><line x1="51.53200149536133" y1="297.09137580514283" x2="46.53200149536133" y2="297.09137580514283" style="visibility: inherit;" fill="rgb(0, 0, 0)" stroke="rgb(204, 204, 204)" stroke-width="1px"></line><line x1="51.53200149536133" y1="268.58771169740567" x2="46.53200149536133" y2="268.58771169740567" style="visibility: inherit;" fill="rgb(0, 0, 0)" stroke="rgb(204, 204, 204)" stroke-width="1px"></line><line x1="51.53200149536133" y1="240.08404758966836" x2="46.53200149536133" y2="240.08404758966836" style="visibility: inherit;" fill="rgb(0, 0, 0)" stroke="rgb(204, 204, 204)" stroke-width="1px"></line><line x1="51.53200149536133" y1="211.58038348193116" x2="46.53200149536133" y2="211.58038348193116" style="visibility: inherit;" fill="rgb(0, 0, 0)" stroke="rgb(204, 204, 204)" stroke-width="1px"></line><line x1="51.53200149536133" y1="183.0767193741939" x2="46.53200149536133" y2="183.0767193741939" style="visibility: inherit;" fill="rgb(0, 0, 0)" stroke="rgb(204, 204, 204)" stroke-width="1px"></line><line x1="51.53200149536133" y1="154.57305526645663" x2="46.53200149536133" y2="154.57305526645663" style="visibility: inherit;" fill="rgb(0, 0, 0)" stroke="rgb(204, 204, 204)" stroke-width="1px"></line><line x1="51.53200149536133" y1="126.0693911587194" x2="46.53200149536133" y2="126.0693911587194" style="visibility: inherit;" fill="rgb(0, 0, 0)" stroke="rgb(204, 204, 204)" stroke-width="1px"></line><line x1="51.53200149536133" y1="97.56572705098215" x2="46.53200149536133" y2="97.56572705098215" style="visibility: inherit;" fill="rgb(0, 0, 0)" stroke="rgb(204, 204, 204)" stroke-width="1px"></line><line x1="51.53200149536133" y1="69.06206294324491" x2="46.53200149536133" y2="69.06206294324491" style="visibility: inherit;" fill="rgb(0, 0, 0)" stroke="rgb(204, 204, 204)" stroke-width="1px"></line><line x1="51.53200149536133" y1="40.55839883550762" x2="46.53200149536133" y2="40.55839883550762" style="visibility: inherit;" fill="rgb(0, 0, 0)" stroke="rgb(204, 204, 204)" stroke-width="1px"></line><line x1="51.53200149536133" y1="12.054734727770414" x2="46.53200149536133" y2="12.054734727770414" style="visibility: inherit;" fill="rgb(0, 0, 0)" stroke="rgb(204, 204, 204)" stroke-width="1px"></line></g><g transform="translate(41.53200149536133, 0)"><text style="text-anchor: end; visibility: inherit; font-family: Roboto, sans-serif; font-size: 12px; font-weight: 200;" x="0" y="354.0987040206174" dx="0em" dy="0.3em" fill="rgb(255, 255, 255)" stroke="none" stroke-width="1px">0.06</text><text style="text-anchor: end; visibility: inherit; font-family: Roboto, sans-serif; font-size: 12px; font-weight: 200;" x="0" y="325.59503991288017" dx="0em" dy="0.3em" fill="rgb(255, 255, 255)" stroke="none" stroke-width="1px">0.08</text><text style="text-anchor: end; visibility: inherit; font-family: Roboto, sans-serif; font-size: 12px; font-weight: 200;" x="0" y="297.09137580514283" dx="0em" dy="0.3em" fill="rgb(255, 255, 255)" stroke="none" stroke-width="1px">0.1</text><text style="text-anchor: end; visibility: inherit; font-family: Roboto, sans-serif; font-size: 12px; font-weight: 200;" x="0" y="268.58771169740567" dx="0em" dy="0.3em" fill="rgb(255, 255, 255)" stroke="none" stroke-width="1px">0.12</text><text style="text-anchor: end; visibility: inherit; font-family: Roboto, sans-serif; font-size: 12px; font-weight: 200;" x="0" y="240.08404758966836" dx="0em" dy="0.3em" fill="rgb(255, 255, 255)" stroke="none" stroke-width="1px">0.14</text><text style="text-anchor: end; visibility: inherit; font-family: Roboto, sans-serif; font-size: 12px; font-weight: 200;" x="0" y="211.58038348193116" dx="0em" dy="0.3em" fill="rgb(255, 255, 255)" stroke="none" stroke-width="1px">0.16</text><text style="text-anchor: end; visibility: inherit; font-family: Roboto, sans-serif; font-size: 12px; font-weight: 200;" x="0" y="183.0767193741939" dx="0em" dy="0.3em" fill="rgb(255, 255, 255)" stroke="none" stroke-width="1px">0.18</text><text style="text-anchor: end; visibility: inherit; font-family: Roboto, sans-serif; font-size: 12px; font-weight: 200;" x="0" y="154.57305526645663" dx="0em" dy="0.3em" fill="rgb(255, 255, 255)" stroke="none" stroke-width="1px">0.2</text><text style="text-anchor: end; visibility: inherit; font-family: Roboto, sans-serif; font-size: 12px; font-weight: 200;" x="0" y="126.0693911587194" dx="0em" dy="0.3em" fill="rgb(255, 255, 255)" stroke="none" stroke-width="1px">0.22</text><text style="text-anchor: end; visibility: inherit; font-family: Roboto, sans-serif; font-size: 12px; font-weight: 200;" x="0" y="97.56572705098215" dx="0em" dy="0.3em" fill="rgb(255, 255, 255)" stroke="none" stroke-width="1px">0.24</text><text style="text-anchor: end; visibility: inherit; font-family: Roboto, sans-serif; font-size: 12px; font-weight: 200;" x="0" y="69.06206294324491" dx="0em" dy="0.3em" fill="rgb(255, 255, 255)" stroke="none" stroke-width="1px">0.26</text><text style="text-anchor: end; visibility: inherit; font-family: Roboto, sans-serif; font-size: 12px; font-weight: 200;" x="0" y="40.55839883550762" dx="0em" dy="0.3em" fill="rgb(255, 255, 255)" stroke="none" stroke-width="1px">0.28</text><text style="text-anchor: end; visibility: inherit; font-family: Roboto, sans-serif; font-size: 12px; font-weight: 200;" x="0" y="12.054734727770414" dx="0em" dy="0.3em" fill="rgb(255, 255, 255)" stroke="none" stroke-width="1px">0.3</text></g><line x1="51.53200149536133" y1="0" x2="51.53200149536133" y2="376.8999996185303" fill="rgb(0, 0, 0)" stroke="rgb(204, 204, 204)" stroke-width="1px"></line></g></g><g transform="translate(51, 0)" clip-path="url(#clip_0)"><clipPath id="clip_0"><rect width="2031" height="376"></rect></clipPath><g><g><g><line x1="51.237315071368464" y1="0" x2="51.237315071368464" y2="376.8999996185303" fill="rgb(0, 0, 0)" stroke="rgb(189, 189, 189)" stroke-width="1px" opacity="0.25"></line><line x1="235.59692727704598" y1="0" x2="235.59692727704598" y2="376.8999996185303" fill="rgb(0, 0, 0)" stroke="rgb(189, 189, 189)" stroke-width="1px" opacity="0.25"></line><line x1="419.9565394827235" y1="0" x2="419.9565394827235" y2="376.8999996185303" fill="rgb(0, 0, 0)" stroke="rgb(189, 189, 189)" stroke-width="1px" opacity="0.25"></line><line x1="604.316151688401" y1="0" x2="604.316151688401" y2="376.8999996185303" fill="rgb(0, 0, 0)" stroke="rgb(189, 189, 189)" stroke-width="1px" opacity="0.25"></line><line x1="788.6757638940785" y1="0" x2="788.6757638940785" y2="376.8999996185303" fill="rgb(0, 0, 0)" stroke="rgb(189, 189, 189)" stroke-width="1px" opacity="0.25"></line><line x1="973.035376099756" y1="0" x2="973.035376099756" y2="376.8999996185303" fill="rgb(0, 0, 0)" stroke="rgb(189, 189, 189)" stroke-width="1px" opacity="0.25"></line><line x1="1157.3949883054333" y1="0" x2="1157.3949883054333" y2="376.8999996185303" fill="rgb(0, 0, 0)" stroke="rgb(189, 189, 189)" stroke-width="1px" opacity="0.25"></line><line x1="1341.754600511111" y1="0" x2="1341.754600511111" y2="376.8999996185303" fill="rgb(0, 0, 0)" stroke="rgb(189, 189, 189)" stroke-width="1px" opacity="0.25"></line><line x1="1526.1142127167884" y1="0" x2="1526.1142127167884" y2="376.8999996185303" fill="rgb(0, 0, 0)" stroke="rgb(189, 189, 189)" stroke-width="1px" opacity="0.25"></line><line x1="1710.473824922466" y1="0" x2="1710.473824922466" y2="376.8999996185303" fill="rgb(0, 0, 0)" stroke="rgb(189, 189, 189)" stroke-width="1px" opacity="0.25"></line><line x1="1894.8334371281435" y1="0" x2="1894.8334371281435" y2="376.8999996185303" fill="rgb(0, 0, 0)" stroke="rgb(189, 189, 189)" stroke-width="1px" opacity="0.25"></line></g><g><line x1="0" y1="354.0987040206174" x2="2031.4679985046387" y2="354.0987040206174" fill="rgb(0, 0, 0)" stroke="rgb(189, 189, 189)" stroke-width="1px" opacity="0.25"></line><line x1="0" y1="325.59503991288017" x2="2031.4679985046387" y2="325.59503991288017" fill="rgb(0, 0, 0)" stroke="rgb(189, 189, 189)" stroke-width="1px" opacity="0.25"></line><line x1="0" y1="297.09137580514283" x2="2031.4679985046387" y2="297.09137580514283" fill="rgb(0, 0, 0)" stroke="rgb(189, 189, 189)" stroke-width="1px" opacity="0.25"></line><line x1="0" y1="268.58771169740567" x2="2031.4679985046387" y2="268.58771169740567" fill="rgb(0, 0, 0)" stroke="rgb(189, 189, 189)" stroke-width="1px" opacity="0.25"></line><line x1="0" y1="240.08404758966836" x2="2031.4679985046387" y2="240.08404758966836" fill="rgb(0, 0, 0)" stroke="rgb(189, 189, 189)" stroke-width="1px" opacity="0.25"></line><line x1="0" y1="211.58038348193116" x2="2031.4679985046387" y2="211.58038348193116" fill="rgb(0, 0, 0)" stroke="rgb(189, 189, 189)" stroke-width="1px" opacity="0.25"></line><line x1="0" y1="183.0767193741939" x2="2031.4679985046387" y2="183.0767193741939" fill="rgb(0, 0, 0)" stroke="rgb(189, 189, 189)" stroke-width="1px" opacity="0.25"></line><line x1="0" y1="154.57305526645663" x2="2031.4679985046387" y2="154.57305526645663" fill="rgb(0, 0, 0)" stroke="rgb(189, 189, 189)" stroke-width="1px" opacity="0.25"></line><line x1="0" y1="126.0693911587194" x2="2031.4679985046387" y2="126.0693911587194" fill="rgb(0, 0, 0)" stroke="rgb(189, 189, 189)" stroke-width="1px" opacity="0.25"></line><line x1="0" y1="97.56572705098215" x2="2031.4679985046387" y2="97.56572705098215" fill="rgb(0, 0, 0)" stroke="rgb(189, 189, 189)" stroke-width="1px" opacity="0.25"></line><line x1="0" y1="69.06206294324491" x2="2031.4679985046387" y2="69.06206294324491" fill="rgb(0, 0, 0)" stroke="rgb(189, 189, 189)" stroke-width="1px" opacity="0.25"></line><line x1="0" y1="40.55839883550762" x2="2031.4679985046387" y2="40.55839883550762" fill="rgb(0, 0, 0)" stroke="rgb(189, 189, 189)" stroke-width="1px" opacity="0.25"></line><line x1="0" y1="12.054734727770414" x2="2031.4679985046387" y2="12.054734727770414" fill="rgb(0, 0, 0)" stroke="rgb(189, 189, 189)" stroke-width="1px" opacity="0.25"></line></g></g></g><g><g><line x1="0" y1="439.6096963438291" x2="2031.4679985046387" y2="439.6096963438291" fill="rgb(0, 0, 0)" stroke="rgb(153, 153, 153)" stroke-width="1.5px"></line></g></g><g><g><line x1="419.9565394827235" y1="0" x2="419.9565394827235" y2="376.8999996185303" fill="rgb(0, 0, 0)" stroke="rgb(153, 153, 153)" stroke-width="1.5px"></line></g></g><g><g><g><g><g><path style="fill: none;" stroke="rgb(255, 112, 67)" stroke-width="2px" d="M429.018183141857,-101.15704480074504L432.0387310282348,43.92842657757727L435.0592789146126,132.4620993012349L438.0798268009904,175.86928886121817L441.10037468736823,211.17777586201467L444.1209225737461,223.8608740107645L447.1414704601239,226.2357981372707L450.1620183465017,224.00135041759086L453.1825662328795,217.38507328625946L456.2031141192573,189.63278674144942L459.22366200563516,146.35505515433226L462.244209892013,139.53242067823118L465.2647577783908,127.0296488154281L468.2853056647686,100.66862927834948L471.3058535511464,96.2101827767355L474.3264014375243,83.8235083204477L477.3469493239021,66.01127281104623L480.3674972102799,72.90924834894238L483.3880450966577,81.02378880972792L486.4085929830356,96.11162939217503L489.4291408694134,109.93461105953745L492.44968875579116,124.35759532595621L495.47023664216897,141.30067353524473L498.4907845285468,154.9589536965875L501.51133241492465,175.5139911915019L504.53188030130246,191.19867144740843L507.5524281876803,210.35223869064325L510.57297607405815,215.01373533917666L513.5935239604358,213.8895476765472L516.6140718468138,213.4811418086597L519.6346197331915,225.6111456605377L522.6551676195694,235.5375996824921L525.6757155059472,252.22559972530425L528.696263392325,252.03026234719846L531.7168112787028,238.4557642330631L534.7373591650806,234.74773094205062L537.7579070514585,234.9240550942554L540.7784549378364,250.0958392496604L543.7990028242141,256.36721326292906L546.819550710592,255.9589478700343L549.8400985969698,259.66491989673654L552.8606464833476,264.162637918416L555.8811943697254,268.47990160732627L558.9017422561031,270.65684138653126L561.9222901424811,260.21660826091875L564.9428380288589,260.0768971042013L567.9633859152367,265.52996372461394L570.9839338016145,261.4433378363527L574.0044816879923,252.7133484350088L577.0250295743701,265.02219484027336L580.0455774607481,272.93336617434534L583.0661253471258,269.9962412989934L586.0866732335037,275.40385294570086L589.1072211198814,263.41379667512695L592.1277690062593,261.1648564567191L595.1483168926371,263.90367757300373L598.1688647790148,266.2543708712731L601.1894126653928,266.0566959636861L604.2099605517705,273.2711023496084L607.2305084381484,270.5672070371892L610.2510563245262,285.19897400449486L613.271604210904,279.00869784225813L616.2921520972818,278.5988554841651L619.3126999836596,282.7565540225736L622.3332478700374,287.04442418226495L625.3537957564154,286.0638799293025L628.3743436427931,272.2084595259683L631.394891529171,263.05481278888504L634.4154394155487,262.8454102411512L637.4359873019265,255.1921085918664L640.4565351883044,255.62265932250574L643.4770830746821,251.83432687047568L646.49763096106,250.51024237502557L649.5181788474379,248.0031643500866L652.5387267338157,227.5386608769825L655.5592746201935,229.1564417010132L658.5798225065713,220.81638424803063L661.6003703929491,207.88110389924745L664.620918279327,192.5399224012341L667.6414661657047,207.63144130906102L670.6620140520827,216.80511780760938L673.6825619384604,224.47382946650572L676.7031098248382,232.39898569302358L679.7236577112161,224.53835056197494L682.7442055975938,221.1847148886297L685.7647534839717,229.0201363713421L688.7853013703494,218.64329458455586L691.8058492567274,219.1840085080356L694.8263971431052,204.47918702046056L697.846945029483,203.67885011425446L700.8674929158608,205.41244878700397L703.8880408022386,211.91267899843018L706.9085886886164,190.9568445019153L709.9291365749943,187.4533793952634L712.949684461372,191.43162428759837L715.9702323477499,182.04771358641187L718.9907802341277,185.45017874550004L722.0113281205055,181.51651592704138L725.0318760068834,187.14362948849987L728.0524238932611,179.13470181447158L731.072971779639,177.96521879283765L734.0935196660168,173.52379853626334L737.1140675523947,152.08833510431896L740.1346154387725,159.55855386244676L743.1551633251503,168.27105555492312L746.1757112115281,158.04934308693612L749.196259097906,160.8883896957756L752.2168069842837,159.1451052574666L755.2373548706615,166.64077950553556L758.2579027570393,159.2331262961561L761.2784506434172,157.46178244479776L764.2989985297951,155.96406172536217L767.3195464161728,148.87441869445263L770.3400943025507,144.3327966357862L773.3606421889284,133.47754544042576L776.3811900753062,133.27040730034565L779.401737961684,142.23603773160968L782.4222858480618,145.81626109978245L785.4428337344397,142.21468698496852L788.4633816208176,153.8397256656363L791.4839295071953,156.81520638333848L794.5044773935732,164.30031326020068L797.5250252799509,157.06601765145663L800.5455731663287,152.00398084005715L803.5661210527066,161.56310259184625L806.5866689390843,152.06596988837018L809.6072168254623,154.12851439114436L812.6277647118401,150.9988711388917L815.6483125982179,165.149054746909L818.6688604845957,173.01376414232482L821.6894083709735,179.35748328927704L824.7099562573513,185.35823250263726L827.7305041437293,187.02770554951786L830.751052030107,190.60849858953168L833.7715999164849,197.10232983951983L836.7921478028626,205.9590721536894L839.8126956892404,198.2481284232976L842.8332435756183,197.99080485892398L845.853791461996,181.59026190254164L848.874339348374,168.8971769156685L851.8948872347516,171.019083147975L854.9154351211296,174.80534035643078L857.9359830075074,175.5184517572312L860.9565308938852,179.7748956720285L863.977078780263,186.1920231752739L866.9976266666408,186.53123951304548L870.0181745530186,196.91771960094184L873.0387224393966,181.4819285264517L876.0592703257743,171.34628424528904L879.0798182121521,178.4878485396643L882.1003660985299,171.0823578093403L885.1209139849077,166.38013477844376L888.1414618712856,179.90388817598432L891.1620097576633,185.4372471043106L894.1825576440413,189.439442165566L897.203105530419,187.0105572044727L900.2236534167969,193.89926244151368L903.2442013031747,190.42488982917993L906.2647491895525,187.04589513039286L909.2852970759303,191.8940246719426L912.3058449623082,191.97038618230016L915.3263928486859,191.7667971149005L918.3469407350638,195.8002432884994L921.3674886214416,194.75061178507454L924.3880365078194,192.03863279349585L927.4085843941973,177.43930214347844L930.429132280575,179.4440689725587L933.4496801669529,184.68952297331694L936.4702280533306,176.15678063506692L939.4907759397086,174.3855718282112L942.5113238260864,177.73056195823506L945.5318717124642,178.63985544645365L948.552419598842,176.13927226498978L951.5729674852198,173.04877238973577L954.5935153715976,174.40469092046382L957.6140632579754,179.90063531941448L960.6346111443532,173.24365012084596L963.655159030731,169.28049033759086L966.6757069171089,178.41667268425215L969.6962548034867,185.37021712672748L972.7168026898646,177.59427709514958L975.7373505762423,173.66435026656447L978.7578984626202,156.1859106711899L981.7784463489979,165.3430416904166L984.7989942353759,173.14405372576022L987.8195421217537,183.1512284029268L990.8400900081315,180.51707358831945L993.8606378945093,194.4857009832894L996.8811857808872,198.6531482055024L999.9017336672649,209.02577290790626L1002.9222815536427,198.76157413252082L1005.9428294400205,192.10702070457657L1008.9633773263984,197.20279183397977L1011.9839252127763,194.6135792455896L1015.004473099154,194.2385798654213L1018.0250209855318,198.3996085448283L1021.0455688719096,207.68575971987156L1024.0661167582875,217.9125670507358L1027.0866646446655,214.76546549389894L1030.1072125310432,218.98550174061583L1033.1277604174209,201.93223983028088L1036.1483083037988,201.1406895440556L1039.1688561901765,195.53917541196031L1042.1894040765544,196.04285326867384L1045.2099519629323,200.7616184356176L1048.23049984931,200.17068948659295L1051.2510477356877,192.64675523049567L1054.2715956220657,196.26645280246993L1057.2921435084436,192.05143118544822L1060.3126913948215,200.4086661628482L1063.333239281199,214.1775136028094L1066.353787167577,223.6105459418023L1069.3743350539548,223.96966441477076L1072.3948829403328,222.14928278614107L1075.4154308267105,216.27680945862437L1078.4359787130882,222.6832340190773L1081.456526599466,212.4141170450868L1084.4770744858438,202.6105806023384L1087.4976223722217,189.61917373888116L1090.5181702585996,187.7048229871022L1093.5387181449773,191.68348457145845L1096.559266031355,184.5850061187249L1099.579813917733,193.43950844883918L1102.600361804111,211.45978399270638L1105.6209096904888,217.0192437479632L1108.6414575768663,210.8014645566437L1111.6620054632442,204.29249434647616L1114.6825533496221,198.26963341803093L1117.703101236,194.65531373343907L1120.7236491223778,196.9558204282836L1123.7441970087555,202.07481852881224L1126.7647448951334,203.8446596959688L1129.785292781511,205.34723824800693L1132.805840667889,209.33238103392864L1135.826388554267,212.88000196057885L1138.8469364406449,206.55365254777033L1141.8674843270223,215.48512487486144L1144.8880322134003,224.63511498611396L1147.9085800997782,222.99274380879325L1150.9291279861561,214.52378273335552L1153.9496758725338,209.69806420055517L1156.9702237589115,206.00088971589943L1159.9907716452894,194.4236683390023L1163.0113195316671,205.0667767495445L1166.031867418045,204.71647187228018L1169.052415304423,198.85979206972078L1172.0729631908007,208.07939475459432" fill="none"></path></g></g></g></g><g opacity="0.2"><g><g><g><path style="fill: none;" stroke="rgb(255, 112, 67)" stroke-width="2px" d="M425.9976352554791,-34.63134521157061L429.018183141857,67.17195132507491L432.0387310282348,233.3520180091148L435.0592789146126,254.936040800234L438.0798268009904,237.94226444702716L441.10037468736823,262.6578888706512L444.1209225737461,242.5659802151861L447.1414704601239,229.762283681975L450.1620183465017,220.66994511443306L453.1825662328795,207.49666307723632L456.2031141192573,148.09497295493603L459.22366200563516,81.52324335515146L462.244209892013,129.3064887147943L465.2647577783908,108.28430894461671L468.2853056647686,61.13825507273956L471.3058535511464,89.52364502339826L474.3264014375243,65.24538362119775L477.3469493239021,39.29454765582387L480.3674972102799,83.25583335441415L483.3880450966577,93.19533248849598L486.4085929830356,118.74309238275286L489.4291408694134,130.66891981418516L492.44968875579116,145.9919692131853L495.47023664216897,166.7152185946884L498.4907845285468,175.44633899080628L501.51133241492465,206.34651587704911L504.53188030130246,214.72567738346092L507.5524281876803,239.08257896961018L510.57297607405815,222.0059787661738L513.5935239604358,212.20326640627874L516.6140718468138,212.86853305558384L519.6346197331915,243.80615056950734L522.6551676195694,250.4272802888167L525.6757155059472,277.2575993592046L528.696263392325,251.73725628306215L531.7168112787028,218.09401718787186L534.7373591650806,229.18568102618485L537.7579070514585,235.18854132197322L540.7784549378364,272.8535154523466L543.7990028242141,265.77427427528704L546.819550710592,255.3465497809869L549.8400985969698,265.22387793518493L552.8606464833476,270.90921494976646L555.8811943697254,274.9557971400184L558.9017422561031,273.9222510551351L561.9222901424811,244.55625857308596L564.9428380288589,259.86733036912983L567.9633859152367,273.7095636551227L570.9839338016145,255.31339900401045L574.0044816879923,239.61836433305638L577.0250295743701,283.4854644481165L580.0455774607481,284.80012317543265L583.0661253471258,265.59055398597025L586.0866732335037,283.5152704157568L589.1072211198814,245.4287122692728L592.1277690062593,257.7914461291081L595.1483168926371,268.01190924743L598.1688647790148,269.78041081867684L601.1894126653928,265.76018360230563L604.2099605517705,284.0927119284915L607.2305084381484,266.51136406856034L610.2510563245262,307.14662445545315L613.271604210904,269.7232835989032L616.2921520972818,277.9840919470255L619.3126999836596,288.9931018301864L622.3332478700374,293.47622942180186L625.3537957564154,284.5930635498588L628.3743436427931,251.425328920967L631.394891529171,249.3243426832603L634.4154394155487,262.53130641955045L637.4359873019265,243.7121561179392L640.4565351883044,256.26848541846476L643.4770830746821,246.1518281924305L646.49763096106,248.5241156318505L649.5181788474379,244.2425473126782L652.5387267338157,196.8419056673263L655.5592746201935,231.58311293705918L658.5798225065713,208.30629806855677L661.6003703929491,188.47818337607268L664.620918279327,169.5281501542141L667.6414661657047,230.2687196708015L670.6620140520827,230.56563255543193L673.6825619384604,235.97689695485016L676.7031098248382,244.28672003280062L679.7236577112161,212.74739786540198L682.7442055975938,216.154261378612L685.7647534839717,240.7732685954106L688.7853013703494,203.07803190437642L691.8058492567274,219.99507939325522L694.8263971431052,182.42195478909792L697.846945029483,202.4783447549454L700.8674929158608,208.01284679612823L703.8880408022386,221.6630243155696L706.9085886886164,159.5230927571429L709.9291365749943,182.19818173528554L712.949684461372,197.3989916261008L715.9702323477499,167.9718475346322L718.9907802341277,190.55387648413227L722.0113281205055,175.6160216993534L725.0318760068834,195.58429983068748L728.0524238932611,167.1213103034291L731.072971779639,176.21099426038677L734.0935196660168,166.86166815140191L737.1140675523947,119.93513995640232L740.1346154387725,170.76388199963841L743.1551633251503,181.33980809363766L746.1757112115281,142.71677438495556L749.196259097906,165.1469596090349L752.2168069842837,156.53017860000313L755.2373548706615,177.88429087763902L758.2579027570393,148.12164648208682L761.2784506434172,154.80476666776028L764.2989985297951,153.71748064620883L767.3195464161728,138.23995414808832L770.3400943025507,137.52036354778656L773.3606421889284,117.19466864738513L776.3811900753062,132.95970009022545L779.401737961684,155.68448337850577L782.4222858480618,151.18659615204166L785.4428337344397,136.8123258127476L788.4633816208176,171.27728368663804L791.4839295071953,161.27842745989173L794.5044773935732,175.52797357549403L797.5250252799509,146.21457423834065L800.5455731663287,144.4109256229579L803.5661210527066,175.9017852195299L806.5866689390843,137.8202708331561L809.6072168254623,157.22233114530573L812.6277647118401,146.30440626051265L815.6483125982179,186.37433015893498L818.6688604845957,184.81082823544853L821.6894083709735,188.87306200970536L824.7099562573513,194.35935632267768L827.7305041437293,189.5319151198388L830.751052030107,195.97968814955235L833.7715999164849,206.84307671450205L836.7921478028626,219.24418562494367L839.8126956892404,186.68171282770984L842.8332435756183,197.6048195123635L845.853791461996,156.9894474679681L848.874339348374,149.85754943535875L851.8948872347516,174.20194249643484L854.9154351211296,180.48472616911428L857.9359830075074,176.5881188584318L860.9565308938852,186.15956154422446L863.977078780263,195.81771443014196L866.9976266666408,187.04006401970287L870.0181745530186,212.49743973278626L873.0387224393966,158.32824191471647L876.0592703257743,156.14281782354507L879.0798182121521,189.2001949812273L882.1003660985299,159.9741217138543L885.1209139849077,159.32680023209898L888.1414618712856,200.18951827229517L891.1620097576633,193.7372854968L894.1825576440413,195.44273475744905L897.203105530419,183.3672297628328L900.2236534167969,204.2323202970751L903.2442013031747,185.21333091067925L906.2647491895525,181.97740308221222L909.2852970759303,199.16621898426718L912.3058449623082,192.08492844783655L915.3263928486859,191.461413513801L918.3469407350638,201.85041254889765L921.3674886214416,193.1761645299374L924.3880365078194,187.9706643061278L927.4085843941973,155.5403061684524L930.429132280575,182.45121921617906L933.4496801669529,192.55770397445437L936.4702280533306,163.35766712769197L939.4907759397086,171.72875861792758L942.5113238260864,182.74804715327082L945.5318717124642,180.0037956787816L948.552419598842,172.38839749279396L951.5729674852198,168.41302257685473L954.5935153715976,176.43856871655586L957.6140632579754,188.14455191784046L960.6346111443532,163.2581723229932L963.655159030731,163.3357506627082L966.6757069171089,192.120946204244L969.6962548034867,195.80053379044054L972.7168026898646,165.93036704778274L975.7373505762423,167.76946002368675L978.7578984626202,129.96825127812815L981.7784463489979,179.07873821925662L984.7989942353759,184.84557177877556L987.8195421217537,198.1619904186767L990.8400900081315,176.56584136640853L993.8606378945093,215.43864207574433L996.8811857808872,204.90431903882185L999.9017336672649,224.58470996151203L1002.9222815536427,183.36527596944273L1005.9428294400205,182.1251905626602L1008.9633773263984,204.84644852808464L1011.9839252127763,190.72976036300432L1015.004473099154,193.67608079516887L1018.0250209855318,204.64115156393873L1021.0455688719096,221.6149864824365L1024.0661167582875,233.25277804703214L1027.0866646446655,210.04481315864362L1030.1072125310432,225.31555611069115L1033.1277604174209,176.35234696477846L1036.1483083037988,199.95336411471766L1039.1688561901765,187.1369042138174L1042.1894040765544,196.79837005374412L1045.2099519629323,207.83976618603322L1048.23049984931,199.28429606305593L1051.2510477356877,181.36085384634984L1054.2715956220657,201.69599916043134L1057.2921435084436,185.72889875991564L1060.3126913948215,212.94451862894826L1063.333239281199,234.83078476275108L1066.353787167577,237.7600944502916L1069.3743350539548,224.50834212422347L1072.3948829403328,219.41871034319655L1075.4154308267105,207.46809946734948L1078.4359787130882,232.29287085975676L1081.456526599466,197.010441584101L1084.4770744858438,187.90527593821585L1087.4976223722217,170.13206344369527L1090.5181702585996,184.83329685943383L1093.5387181449773,197.6514769479928L1096.559266031355,173.93728843962452L1099.579813917733,206.72126194401065L1102.600361804111,238.49019730850708L1105.6209096904888,225.3584333808484L1108.6414575768663,201.4747957696645L1111.6620054632442,194.5290390312248L1114.6825533496221,189.2353420253631L1117.703101236,189.23383420655125L1120.7236491223778,200.4065804705505L1123.7441970087555,209.7533156796051L1126.7647448951334,206.49942144670362L1129.785292781511,207.6011060760642L1132.805840667889,215.3100952128112L1135.826388554267,218.20143335055414L1138.8469364406449,197.06412842855747L1141.8674843270223,228.8823333654981L1144.8880322134003,238.36010015299271L1147.9085800997782,220.52918704281225L1150.9291279861561,201.82034112019895L1153.9496758725338,202.45948640135472L1156.9702237589115,200.4551279889158L1159.9907716452894,177.0578362736565L1163.0113195316671,221.03143936535787L1166.031867418045,204.19101455638372L1169.052415304423,190.07477236588159L1172.0729631908007,221.90879878190452" fill="none"></path></g></g></g></g></g></g><g transform="translate(51, 376)" clip-path="url(#clip_1)"><clipPath id="clip_1"><rect width="2031" height="23"></rect></clipPath><g><g><line x1="51.237315071368464" y1="0" x2="51.237315071368464" y2="5" style="visibility: inherit;" fill="rgb(0, 0, 0)" stroke="rgb(204, 204, 204)" stroke-width="1px"></line><line x1="235.59692727704598" y1="0" x2="235.59692727704598" y2="5" style="visibility: inherit;" fill="rgb(0, 0, 0)" stroke="rgb(204, 204, 204)" stroke-width="1px"></line><line x1="419.9565394827235" y1="0" x2="419.9565394827235" y2="5" style="visibility: inherit;" fill="rgb(0, 0, 0)" stroke="rgb(204, 204, 204)" stroke-width="1px"></line><line x1="604.316151688401" y1="0" x2="604.316151688401" y2="5" style="visibility: inherit;" fill="rgb(0, 0, 0)" stroke="rgb(204, 204, 204)" stroke-width="1px"></line><line x1="788.6757638940785" y1="0" x2="788.6757638940785" y2="5" style="visibility: inherit;" fill="rgb(0, 0, 0)" stroke="rgb(204, 204, 204)" stroke-width="1px"></line><line x1="973.035376099756" y1="0" x2="973.035376099756" y2="5" style="visibility: inherit;" fill="rgb(0, 0, 0)" stroke="rgb(204, 204, 204)" stroke-width="1px"></line><line x1="1157.3949883054333" y1="0" x2="1157.3949883054333" y2="5" style="visibility: inherit;" fill="rgb(0, 0, 0)" stroke="rgb(204, 204, 204)" stroke-width="1px"></line><line x1="1341.754600511111" y1="0" x2="1341.754600511111" y2="5" style="visibility: inherit;" fill="rgb(0, 0, 0)" stroke="rgb(204, 204, 204)" stroke-width="1px"></line><line x1="1526.1142127167884" y1="0" x2="1526.1142127167884" y2="5" style="visibility: inherit;" fill="rgb(0, 0, 0)" stroke="rgb(204, 204, 204)" stroke-width="1px"></line><line x1="1710.473824922466" y1="0" x2="1710.473824922466" y2="5" style="visibility: inherit;" fill="rgb(0, 0, 0)" stroke="rgb(204, 204, 204)" stroke-width="1px"></line><line x1="1894.8334371281435" y1="0" x2="1894.8334371281435" y2="5" style="visibility: inherit;" fill="rgb(0, 0, 0)" stroke="rgb(204, 204, 204)" stroke-width="1px"></line></g><g transform="translate(0, 8)"><text style="text-anchor: middle; visibility: inherit; font-family: Roboto, sans-serif; font-size: 12px; font-weight: 200;" x="51.237315071368464" y="0" dx="0em" dy="0.95em" fill="rgb(255, 255, 255)" stroke="none" stroke-width="1px">-4M</text><text style="text-anchor: middle; visibility: inherit; font-family: Roboto, sans-serif; font-size: 12px; font-weight: 200;" x="235.59692727704598" y="0" dx="0em" dy="0.95em" fill="rgb(255, 255, 255)" stroke="none" stroke-width="1px">-2M</text><text style="text-anchor: middle; visibility: inherit; font-family: Roboto, sans-serif; font-size: 12px; font-weight: 200;" x="419.9565394827235" y="0" dx="0em" dy="0.95em" fill="rgb(255, 255, 255)" stroke="none" stroke-width="1px">0</text><text style="text-anchor: middle; visibility: inherit; font-family: Roboto, sans-serif; font-size: 12px; font-weight: 200;" x="604.316151688401" y="0" dx="0em" dy="0.95em" fill="rgb(255, 255, 255)" stroke="none" stroke-width="1px">2M</text><text style="text-anchor: middle; visibility: inherit; font-family: Roboto, sans-serif; font-size: 12px; font-weight: 200;" x="788.6757638940785" y="0" dx="0em" dy="0.95em" fill="rgb(255, 255, 255)" stroke="none" stroke-width="1px">4M</text><text style="text-anchor: middle; visibility: inherit; font-family: Roboto, sans-serif; font-size: 12px; font-weight: 200;" x="973.035376099756" y="0" dx="0em" dy="0.95em" fill="rgb(255, 255, 255)" stroke="none" stroke-width="1px">6M</text><text style="text-anchor: middle; visibility: inherit; font-family: Roboto, sans-serif; font-size: 12px; font-weight: 200;" x="1157.3949883054333" y="0" dx="0em" dy="0.95em" fill="rgb(255, 255, 255)" stroke="none" stroke-width="1px">8M</text><text style="text-anchor: middle; visibility: inherit; font-family: Roboto, sans-serif; font-size: 12px; font-weight: 200;" x="1341.754600511111" y="0" dx="0em" dy="0.95em" fill="rgb(255, 255, 255)" stroke="none" stroke-width="1px">10M</text><text style="text-anchor: middle; visibility: inherit; font-family: Roboto, sans-serif; font-size: 12px; font-weight: 200;" x="1526.1142127167884" y="0" dx="0em" dy="0.95em" fill="rgb(255, 255, 255)" stroke="none" stroke-width="1px">12M</text><text style="text-anchor: middle; visibility: inherit; font-family: Roboto, sans-serif; font-size: 12px; font-weight: 200;" x="1710.473824922466" y="0" dx="0em" dy="0.95em" fill="rgb(255, 255, 255)" stroke="none" stroke-width="1px">14M</text><text style="text-anchor: middle; visibility: inherit; font-family: Roboto, sans-serif; font-size: 12px; font-weight: 200;" x="1894.8334371281435" y="0" dx="0em" dy="0.95em" fill="rgb(255, 255, 255)" stroke="none" stroke-width="1px">16M</text></g><line x1="0" y1="0" x2="2031.4679985046387" y2="0" fill="rgb(0, 0, 0)" stroke="rgb(204, 204, 204)" stroke-width="1px"></line></g></g></g></g></svg>