<svg viewBox="0 0 2083 400" xmlns="http://www.w3.org/2000/svg"><g><g><g><g><g><line x1="72.29800224304199" y1="376.8999996185303" x2="67.29800224304199" y2="376.8999996185303" style="visibility: inherit;" fill="rgb(0, 0, 0)" stroke="rgb(204, 204, 204)" stroke-width="1px"></line><line x1="72.29800224304199" y1="323.05714253016885" x2="67.29800224304199" y2="323.05714253016885" style="visibility: inherit;" fill="rgb(0, 0, 0)" stroke="rgb(204, 204, 204)" stroke-width="1px"></line><line x1="72.29800224304199" y1="269.21428544180736" x2="67.29800224304199" y2="269.21428544180736" style="visibility: inherit;" fill="rgb(0, 0, 0)" stroke="rgb(204, 204, 204)" stroke-width="1px"></line><line x1="72.29800224304199" y1="215.37142835344585" x2="67.29800224304199" y2="215.37142835344585" style="visibility: inherit;" fill="rgb(0, 0, 0)" stroke="rgb(204, 204, 204)" stroke-width="1px"></line><line x1="72.29800224304199" y1="161.52857126508442" x2="67.29800224304199" y2="161.52857126508442" style="visibility: inherit;" fill="rgb(0, 0, 0)" stroke="rgb(204, 204, 204)" stroke-width="1px"></line><line x1="72.29800224304199" y1="107.68571417672293" x2="67.29800224304199" y2="107.68571417672293" style="visibility: inherit;" fill="rgb(0, 0, 0)" stroke="rgb(204, 204, 204)" stroke-width="1px"></line><line x1="72.29800224304199" y1="53.842857088361484" x2="67.29800224304199" y2="53.842857088361484" style="visibility: inherit;" fill="rgb(0, 0, 0)" stroke="rgb(204, 204, 204)" stroke-width="1px"></line><line x1="72.29800224304199" y1="0" x2="67.29800224304199" y2="0" style="visibility: inherit;" fill="rgb(0, 0, 0)" stroke="rgb(204, 204, 204)" stroke-width="1px"></line></g><g transform="translate(62.29800224304199, 0)"><text style="text-anchor: end; visibility: hidden; font-family: Roboto, sans-serif; font-size: 12px; font-weight: 200;" x="0" y="376.8999996185303" dx="0em" dy="0.3em" fill="rgb(255, 255, 255)" stroke="none" stroke-width="1px">0</text><text style="text-anchor: end; visibility: inherit; font-family: Roboto, sans-serif; font-size: 12px; font-weight: 200;" x="0" y="323.05714253016885" dx="0em" dy="0.3em" fill="rgb(255, 255, 255)" stroke="none" stroke-width="1px">500</text><text style="text-anchor: end; visibility: inherit; font-family: Roboto, sans-serif; font-size: 12px; font-weight: 200;" x="0" y="269.21428544180736" dx="0em" dy="0.3em" fill="rgb(255, 255, 255)" stroke="none" stroke-width="1px">1e+3</text><text style="text-anchor: end; visibility: inherit; font-family: Roboto, sans-serif; font-size: 12px; font-weight: 200;" x="0" y="215.37142835344585" dx="0em" dy="0.3em" fill="rgb(255, 255, 255)" stroke="none" stroke-width="1px">1.5e+3</text><text style="text-anchor: end; visibility: inherit; font-family: Roboto, sans-serif; font-size: 12px; font-weight: 200;" x="0" y="161.52857126508442" dx="0em" dy="0.3em" fill="rgb(255, 255, 255)" stroke="none" stroke-width="1px">2e+3</text><text style="text-anchor: end; visibility: inherit; font-family: Roboto, sans-serif; font-size: 12px; font-weight: 200;" x="0" y="107.68571417672293" dx="0em" dy="0.3em" fill="rgb(255, 255, 255)" stroke="none" stroke-width="1px">2.5e+3</text><text style="text-anchor: end; visibility: inherit; font-family: Roboto, sans-serif; font-size: 12px; font-weight: 200;" x="0" y="53.842857088361484" dx="0em" dy="0.3em" fill="rgb(255, 255, 255)" stroke="none" stroke-width="1px">3e+3</text><text style="text-anchor: end; visibility: hidden; font-family: Roboto, sans-serif; font-size: 12px; font-weight: 200;" x="0" y="0" dx="0em" dy="0.3em" fill="rgb(255, 255, 255)" stroke="none" stroke-width="1px">3.5e+3</text></g><line x1="72.29800224304199" y1="0" x2="72.29800224304199" y2="376.8999996185303" fill="rgb(0, 0, 0)" stroke="rgb(204, 204, 204)" stroke-width="1px"></line></g></g><g transform="translate(72, 0)" clip-path="url(#clip_0)"><clipPath id="clip_0"><rect width="2010" height="376"></rect></clipPath><g><g><g><line x1="0" y1="0" x2="0" y2="376.8999996185303" fill="rgb(0, 0, 0)" stroke="rgb(189, 189, 189)" stroke-width="1px" opacity="0.25"></line><line x1="143.62157126835413" y1="0" x2="143.62157126835413" y2="376.8999996185303" fill="rgb(0, 0, 0)" stroke="rgb(189, 189, 189)" stroke-width="1px" opacity="0.25"></line><line x1="287.24314253670826" y1="0" x2="287.24314253670826" y2="376.8999996185303" fill="rgb(0, 0, 0)" stroke="rgb(189, 189, 189)" stroke-width="1px" opacity="0.25"></line><line x1="430.8647138050624" y1="0" x2="430.8647138050624" y2="376.8999996185303" fill="rgb(0, 0, 0)" stroke="rgb(189, 189, 189)" stroke-width="1px" opacity="0.25"></line><line x1="574.4862850734165" y1="0" x2="574.4862850734165" y2="376.8999996185303" fill="rgb(0, 0, 0)" stroke="rgb(189, 189, 189)" stroke-width="1px" opacity="0.25"></line><line x1="718.1078563417707" y1="0" x2="718.1078563417707" y2="376.8999996185303" fill="rgb(0, 0, 0)" stroke="rgb(189, 189, 189)" stroke-width="1px" opacity="0.25"></line><line x1="861.7294276101248" y1="0" x2="861.7294276101248" y2="376.8999996185303" fill="rgb(0, 0, 0)" stroke="rgb(189, 189, 189)" stroke-width="1px" opacity="0.25"></line><line x1="1005.350998878479" y1="0" x2="1005.350998878479" y2="376.8999996185303" fill="rgb(0, 0, 0)" stroke="rgb(189, 189, 189)" stroke-width="1px" opacity="0.25"></line><line x1="1148.972570146833" y1="0" x2="1148.972570146833" y2="376.8999996185303" fill="rgb(0, 0, 0)" stroke="rgb(189, 189, 189)" stroke-width="1px" opacity="0.25"></line><line x1="1292.5941414151873" y1="0" x2="1292.5941414151873" y2="376.8999996185303" fill="rgb(0, 0, 0)" stroke="rgb(189, 189, 189)" stroke-width="1px" opacity="0.25"></line><line x1="1436.2157126835414" y1="0" x2="1436.2157126835414" y2="376.8999996185303" fill="rgb(0, 0, 0)" stroke="rgb(189, 189, 189)" stroke-width="1px" opacity="0.25"></line><line x1="1579.8372839518956" y1="0" x2="1579.8372839518956" y2="376.8999996185303" fill="rgb(0, 0, 0)" stroke="rgb(189, 189, 189)" stroke-width="1px" opacity="0.25"></line><line x1="1723.4588552202497" y1="0" x2="1723.4588552202497" y2="376.8999996185303" fill="rgb(0, 0, 0)" stroke="rgb(189, 189, 189)" stroke-width="1px" opacity="0.25"></line><line x1="1867.080426488604" y1="0" x2="1867.080426488604" y2="376.8999996185303" fill="rgb(0, 0, 0)" stroke="rgb(189, 189, 189)" stroke-width="1px" opacity="0.25"></line><line x1="2010.701997756958" y1="0" x2="2010.701997756958" y2="376.8999996185303" fill="rgb(0, 0, 0)" stroke="rgb(189, 189, 189)" stroke-width="1px" opacity="0.25"></line></g><g><line x1="0" y1="376.8999996185303" x2="2010.701997756958" y2="376.8999996185303" fill="rgb(0, 0, 0)" stroke="rgb(189, 189, 189)" stroke-width="1px" opacity="0.25"></line><line x1="0" y1="323.05714253016885" x2="2010.701997756958" y2="323.05714253016885" fill="rgb(0, 0, 0)" stroke="rgb(189, 189, 189)" stroke-width="1px" opacity="0.25"></line><line x1="0" y1="269.21428544180736" x2="2010.701997756958" y2="269.21428544180736" fill="rgb(0, 0, 0)" stroke="rgb(189, 189, 189)" stroke-width="1px" opacity="0.25"></line><line x1="0" y1="215.37142835344585" x2="2010.701997756958" y2="215.37142835344585" fill="rgb(0, 0, 0)" stroke="rgb(189, 189, 189)" stroke-width="1px" opacity="0.25"></line><line x1="0" y1="161.52857126508442" x2="2010.701997756958" y2="161.52857126508442" fill="rgb(0, 0, 0)" stroke="rgb(189, 189, 189)" stroke-width="1px" opacity="0.25"></line><line x1="0" y1="107.68571417672293" x2="2010.701997756958" y2="107.68571417672293" fill="rgb(0, 0, 0)" stroke="rgb(189, 189, 189)" stroke-width="1px" opacity="0.25"></line><line x1="0" y1="53.842857088361484" x2="2010.701997756958" y2="53.842857088361484" fill="rgb(0, 0, 0)" stroke="rgb(189, 189, 189)" stroke-width="1px" opacity="0.25"></line><line x1="0" y1="0" x2="2010.701997756958" y2="0" fill="rgb(0, 0, 0)" stroke="rgb(189, 189, 189)" stroke-width="1px" opacity="0.25"></line></g></g></g><g><g><line x1="0" y1="376.8999996185303" x2="2010.701997756958" y2="376.8999996185303" fill="rgb(0, 0, 0)" stroke="rgb(153, 153, 153)" stroke-width="1.5px"></line></g></g><g><g><line x1="143.62157126835413" y1="0" x2="143.62157126835413" y2="376.8999996185303" fill="rgb(0, 0, 0)" stroke="rgb(153, 153, 153)" stroke-width="1.5px"></line></g></g><g><g><g><g><g><path style="fill: none;" stroke="rgb(255, 112, 67)" stroke-width="2px" d="M150.80264983177184,377.6132098727637L157.98372839518956,375.3878199134924L165.16480695860727,374.2036252254743L172.345885522025,372.248789142405L179.52696408544267,366.9819457839378L186.70804264886038,364.5033131182759L193.8891212122781,363.44643947227996L201.0701997756958,362.4801212612592L208.25127833911353,361.1481173631056L215.4323569025312,359.5760027961596L222.61343546594892,358.4960881285204L229.7945140293666,356.23422195188573L236.97559259278432,352.7087425034319L244.15667115620204,349.70911562227565L251.33774971961975,346.5647949189162L258.5188282830374,343.3309541227055L265.6999068464552,342.4664876414115L272.88098540987284,343.83781463280684L280.0620639732906,340.8008538979873L287.24314253670826,337.9078057523562L294.42422110012603,333.7777752788548L301.6052996635437,327.67763237628253L308.7863782269614,323.7482974798082L315.9674567903791,318.3695315265639L323.14853535379683,312.3533885989452L330.32961391721454,309.74101507834644L337.5106924806322,301.1308672893769L344.69177104405,290.9290701153382L351.87284960746763,285.7475119580606L359.05392817088534,279.2690505309506L366.23500673430306,273.61936480780975L373.41608529772077,268.5970004384332L380.5971638611385,267.04226085731983L387.7782424245562,264.10198292099557L394.9593209879739,259.8580949550848L402.1403995513916,255.5583148789098L409.3214781148093,250.59011126189276L416.50255667822705,246.87562750363114L423.6836352416447,248.42715802939648L430.8647138050624,242.68811363679515L438.04579236848014,239.19306306363274L445.22687093189785,238.3015132984563L452.40794949531556,236.21057745023725L459.5890280587332,228.76463947506684L466.770106622151,221.11296576176224L473.95118518556865,219.02267830925723L481.1322637489864,212.56897369028286L488.3133423124041,213.63347839463583L495.49442087582185,210.74631537253913L502.6754994392395,202.69751954806992L509.85657800265716,199.65817001758688L517.0376565660748,200.4644368340408L524.2187351294926,202.57084922277437L531.3998136929104,201.2997339311757L538.5808922563281,197.06901162774975L545.7619708197457,189.78606030546268L552.9430493831635,189.7956803196027L560.1241279465812,183.30076337121665L567.3052065099988,184.7251122327935L574.4862850734165,184.41171013351092L581.6673636368344,186.46401021514495L588.8484422002521,176.11937053951334L596.0295207636697,174.55811058545953L603.2105993270874,167.35812106886414L610.3916778905051,169.7324087290846L617.5727564539228,172.35043664627463L624.7538350173405,172.72076800717863L631.9349135807582,162.91956687711374L639.115992144176,163.79238626059876L646.2970707075937,165.49997925946917L653.4781492710114,162.5789262848831L660.6592278344291,163.14745796597413L667.8403063978467,159.46807720330733L675.0213849612644,156.83847638564333L682.2024635246822,148.3245780895651L689.3835420881,141.81024647383234L696.5646206515175,137.64242359282468L703.7456992149353,145.46806423713906L710.9267777783531,135.46678839306682L718.1078563417707,132.5893923421676L725.2889349051884,133.29943864052365L732.4700134686061,145.2573024011692L739.6510920320239,139.2102025152467L746.8321705954415,132.20801455139377L754.0132491588593,128.55416374518413L761.194327722277,112.7947152171543L768.3754062856946,114.9023044368472L775.5564848491124,123.38866788601871L782.7375634125301,119.49758344787243L789.9186419759478,116.1474060226196L797.0997205393654,114.69910561321625L804.2807991027832,116.37932174613258L811.461877666201,111.50526651554122L818.6429562296186,113.49847398046806L825.8240347930363,104.7812133690111L833.0051133564541,96.95007874584068L840.1861919198718,108.72707036876749L847.3672704832894,99.70235905021579L854.5483490467071,101.97850064973802L861.7294276101248,100.81203596357672L868.9105061735426,100.19017671374296L876.0915847369603,92.28914619099314L883.272663300378,90.27352328753166L890.4537418637957,88.5574482987578L897.6348204272134,99.6200466805314L904.8158989906311,94.36163637453754L911.9969775540488,91.26875134880243L919.1780561174664,82.000530985395L926.3591346808842,82.82321631669305L933.540213244302,89.46773245065265L940.7212918077197,85.25678300986114L947.9023703711373,75.0483099045006L955.083448934555,79.65600037193919L962.2645274979728,76.02836331679624L969.4456060613904,72.77340961158765L976.6266846248081,80.01975242658467L983.8077631882259,91.07307602732284L990.9888417516437,103.3261067250453L998.1699203150613,94.3568827020504L1005.350998878479,90.19565668266561L1012.5320774418967,91.47116005159184L1019.7131560053143,94.36586294132806L1026.8942345687321,93.83586884320071L1034.0753131321496,92.26854984094588L1041.2563916955676,92.35923863665207L1048.4374702589853,91.18574031933645L1055.618548822403,101.2566276182647L1062.7996273858207,92.15138706373432L1069.9807059492384,95.61007776383877L1077.1617845126561,88.51861937788905L1084.3428630760736,90.42610140481426L1091.5239416394913,90.58962003602477L1098.705020202909,85.15646081577354L1105.886098766327,82.30550809291871L1113.0671773297447,86.85873261916072L1120.2482558931624,80.5469497408227L1127.4293344565801,79.87412142249822L1134.6104130199976,78.72148290882406L1141.7914915834153,79.88228337575362L1148.972570146833,78.26529803604308L1156.1536487102508,73.6144532896251L1163.3347272736687,74.56206040841495L1170.5158058370864,83.19840894049648L1177.6968844005041,78.1687309216432L1184.8779629639216,79.36571562113231L1192.0590415273393,81.63525376068414L1199.240120090757,76.63847174013661L1206.4211986541748,75.23589678400573L1213.6022772175925,86.69548864497511L1220.7833557810102,80.35188640607474L1227.9644343444281,74.65911131185388L1235.1455129078456,76.10651838488594L1242.3265914712633,76.76013804186906L1249.507670034681,73.02653781456502L1256.6887485980988,81.31601090134232L1263.8698271615165,85.76516857648419L1271.0509057249342,84.06944818877766L1278.231984288352,73.82144682208103L1285.4130628517694,73.67842761149781L1292.5941414151873,71.2493791511356L1299.775219978605,72.14152826729472L1306.9562985420228,62.91216321562321L1314.1373771054405,69.73758978873683L1321.3184556688582,65.91554805088613L1328.499534232276,78.76882348391706L1335.6806127956934,68.61482437007707L1342.861691359111,67.23277050526461L1350.0427699225288,67.15214319119976L1357.2238484859467,75.29341259246301L1364.4049270493645,72.66939871347701L1371.5860056127822,66.80826818339284L1378.7670841762,61.97898093251909L1385.9481627396174,48.78425661697039L1393.129241303035,44.85969110563175L1400.3103198664528,54.25553490356499L1407.4913984298705,52.947943588907826L1414.6724769932885,47.82780841108645L1421.8535555567062,51.316500472976536L1429.0346341201239,53.95653619504826L1436.2157126835414,61.31482546842914L1443.396791246959,70.96072724423915L1450.5778698103768,70.1386159224418L1457.7589483737945,52.410134897365566L1464.9400269372122,49.99927787276618L1472.12110550063,49.706325838758644L1479.3021840640479,50.72527713946631L1486.4832626274654,45.39347966418747L1493.664341190883,51.903477673099566L1500.8454197543008,62.47882923676358L1508.0264983177185,79.20583689715522L1515.2075768811362,74.56952641895492L1522.388655444554,73.59281139973905L1529.5697340079716,65.21637297087116L1536.7508125713891,55.071799890829354L1543.931891134807,64.04030759843707L1551.1129696982248,68.11686920255868L1558.2940482616425,76.21180523297485L1565.4751268250602,63.24894748868004L1572.656205388478,73.48579088190594L1579.8372839518956,70.52301720328438L1587.0183625153131,60.87651388577218L1594.1994410787308,75.61601186890816L1601.3805196421486,69.9473360194603L1608.5615982055665,75.5755566111437L1615.7426767689842,74.85433244128372L1622.923755332402,74.97796711849212L1630.1048338958196,59.93759561310605L1637.2859124592371,52.37857145839142L1644.4669910226548,51.10272150746443L1651.6480695860726,50.1833913278006L1658.8291481494903,45.688918653680496L1666.0102267129082,43.38433093329816L1673.191305276326,49.068358648268955L1680.3723838397436,46.69683062350526L1687.5534624031611,49.15034713061648L1694.7345409665788,46.42030597607831L1701.9156195299965,51.38780081070993L1709.0966980934143,60.915200034661716L1716.277776656832,60.98309269695965L1723.4588552202497,67.20729133216479L1730.6399337836676,69.01477255485887L1737.8210123470851,67.37155270306644L1745.0020909105028,62.33345153548962L1752.1831694739205,68.13394181373634L1759.3642480373383,58.01766314009312L1766.545326600756,53.036383976100154L1773.7264051641737,49.41488929363496L1780.9074837275914,46.831556376870424L1788.0885622910089,45.71098496064041L1795.2696408544268,53.82957169742902L1802.4507194178445,60.148612850759946L1809.6317979812623,50.95880863569623L1816.81287654468,56.723711176157586L1823.9939551080977,46.87627393042004L1831.1750336715154,45.045966327733815L1838.3561122349329,45.40657615917684L1845.5371907983506,35.16848902732923L1852.7182693617683,33.69319200298312L1859.8993479251862,42.926537868536045L1867.080426488604,36.38703711047324L1874.2615050520217,41.78977131416475L1881.4425836154394,30.85411433677798L1888.6236621788569,29.502878900652952L1895.8047407422746,24.18218841921224L1902.9858193056923,29.362517182699424L1910.16689786911,32.8312722919893L1917.347976432528,22.988456781462215L1924.5290549959457,29.159625674418237L1931.7101335593634,28.63955371647471L1938.8912121227809,37.8932304287903" fill="none"></path></g></g></g></g><g opacity="0.2"><g><g><g><path style="fill: none;" stroke="rgb(255, 112, 67)" stroke-width="2px" d="M150.80264983177184,377.6132098727637L157.98372839518956,374.0525859379296L165.16480695860727,373.06679832497696L172.345885522025,369.94990190871545L179.52696408544267,360.10555509512307L186.70804264886038,361.07447183390593L193.8891212122781,361.9350932485273L201.0701997756958,361.0712200329362L208.25127833911353,359.18367034176623L215.4323569025312,357.24159588476493L222.61343546594892,356.8860108736153L229.7945140293666,352.853731662783L236.97559259278432,347.43203463283515L244.15667115620204,345.2155518818698L251.33774971961975,341.8520098948305L258.5188282830374,338.4824736834669L265.6999068464552,341.1701537327137L272.88098540987284,345.89445694012517L280.0620639732906,336.2458754461589L287.24314253670826,333.5684979699695L294.42422110012603,327.5829560692893L301.6052996635437,318.52761875022475L308.7863782269614,317.8543727129598L315.9674567903791,310.30144631330796L323.14853535379683,303.32921696768614L330.32961391721454,305.8224659380282L337.5106924806322,288.215667636931L344.69177104405,275.626390016442L351.87284960746763,277.9751794950914L359.05392817088534,269.55136197083283L366.23500673430306,265.1448380965958L373.41608529772077,261.0634548836507L380.5971638611385,264.71015167125444L387.7782424245562,259.6915662271151L394.9593209879739,253.4922631886073L402.1403995513916,249.10864487552172L409.3214781148093,243.13780591323345L416.50255667822705,241.3039019007202L423.6836352416447,250.7544538094028L430.8647138050624,234.0795470670723L438.04579236848014,233.9504872108971L445.22687093189785,236.96418865176432L452.40794949531556,233.074173679418L459.5890280587332,217.59573251553613L466.770106622151,209.6354551937938L473.95118518556865,215.88724713082559L481.1322637489864,202.8884167624251L488.3133423124041,215.23023545110553L495.49442087582185,206.41557083949132L502.6754994392395,190.62432581152873L509.85657800265716,195.0991457218992L517.0376565660748,201.6738370587158L524.2187351294926,205.73046780586557L531.3998136929104,199.3930609937809L538.5808922563281,190.72292817261751L545.7619708197457,178.86163332203895L552.9430493831635,189.81011034081266L560.1241279465812,173.55838794863976L567.3052065099988,186.86163552515848L574.4862850734165,183.94160698458714L581.6673636368344,189.54246033759583L588.8484422002521,160.60241102606642L596.0295207636697,172.21622065437876L603.2105993270874,156.55813679397113L610.3916778905051,173.29384021941533L617.5727564539228,176.2774785220596L624.7538350173405,173.2762650485347L631.9349135807582,148.21776518201642L639.115992144176,165.1016153358263L646.2970707075937,168.06136875777486L653.4781492710114,158.197346823004L660.6592278344291,164.00025548761067L667.8403063978467,153.9490060593072L675.0213849612644,152.89407515914726L682.2024635246822,135.5537306454478L689.3835420881,132.0387490502331L696.5646206515175,131.39068927131314L703.7456992149353,157.20652520361065L710.9267777783531,120.46487462695848L718.1078563417707,128.2732982658188L725.2889349051884,134.36450808805773L732.4700134686061,163.19409804213754L739.6510920320239,130.13955268636295L746.8321705954415,121.70473260561428L754.0132491588593,123.07338753586968L761.194327722277,89.15554242510947L768.3754062856946,118.06368826638654L775.5564848491124,136.11821305977608L782.7375634125301,113.66095679065292L789.9186419759478,111.12213988474036L797.0997205393654,112.52665499911123L804.2807991027832,118.89964594550698L811.461877666201,104.19418366965414L818.6429562296186,116.48828517785829L825.8240347930363,91.70532245182565L833.0051133564541,85.203376811085L840.1861919198718,126.39255780315759L847.3672704832894,86.16529207238821L854.5483490467071,105.39271304902142L861.7294276101248,99.06233893433478L868.9105061735426,99.2573878389923L876.0915847369603,80.4376004068684L883.272663300378,87.25008893233937L890.4537418637957,85.98333581559694L897.6348204272134,116.21394425319174L904.8158989906311,86.4740209155467L911.9969775540488,86.62942381019968L919.1780561174664,68.09820044028373L926.3591346808842,84.05724431364011L933.540213244302,99.43450665159203L940.7212918077197,78.94035884867397L947.9023703711373,59.73560024645979L955.083448934555,86.56753607309716L962.2645274979728,70.5869077340818L969.4456060613904,67.89097905377471L976.6266846248081,90.88926664908016L983.8077631882259,107.6530614284301L990.9888417516437,121.705652771629L998.1699203150613,80.903046667558L1005.350998878479,83.95381765358856L1012.5320774418967,93.3844151049811L1019.7131560053143,98.70791727593236L1026.8942345687321,93.0408776960096L1034.0753131321496,89.91757133756364L1041.2563916955676,92.49527183021141L1048.4374702589853,89.42549284336305L1055.618548822403,116.362958566657L1062.7996273858207,78.49352623193869L1069.9807059492384,100.7981138139954L1077.1617845126561,77.88143179896446L1084.3428630760736,93.28732444520213L1091.5239416394913,90.83489798284054L1098.705020202909,77.00672198539665L1105.886098766327,78.02907900863646L1113.0671773297447,93.68856940852373L1120.2482558931624,71.07927542331564L1127.4293344565801,78.8648789450115L1134.6104130199976,76.9925251383128L1141.7914915834153,81.62348407614803L1148.972570146833,75.83982002647726L1156.1536487102508,66.63818616999806L1163.3347272736687,75.98347108659972L1170.5158058370864,96.15293173861878L1177.6968844005041,70.62421389336326L1184.8779629639216,81.16119267036593L1192.0590415273393,85.03956097001198L1199.240120090757,69.14329870931525L1206.4211986541748,73.1320343498094L1213.6022772175925,103.88487643642922L1220.7833557810102,70.8364830477243L1227.9644343444281,66.11994867052258L1235.1455129078456,78.27762899443402L1242.3265914712633,77.74056752734367L1249.507670034681,67.42613747360903L1256.6887485980988,93.75022053150818L1263.8698271615165,92.43890508919701L1271.0509057249342,81.52586760721783L1278.231984288352,58.44944477203607L1285.4130628517694,73.46389879562307L1292.5941414151873,67.60580646059236L1299.775219978605,73.47975194153338L1306.9562985420228,49.06811563811596L1314.1373771054405,79.97572964840728L1321.3184556688582,60.18248544411017L1328.499534232276,98.04873663346336L1335.6806127956934,53.38382569931715L1342.861691359111,65.15968970804582L1350.0427699225288,67.03120222010251L1357.2238484859467,87.50531669435782L1364.4049270493645,68.73337789499799L1371.5860056127822,58.01657238826662L1378.7670841762,54.735050056208465L1385.9481627396174,28.992170143647364L1393.129241303035,38.97284283862384L1400.3103198664528,68.34930060046486L1407.4913984298705,50.98655661692206L1414.6724769932885,40.14760564435448L1421.8535555567062,56.5495385658117L1429.0346341201239,57.91658977815575L1436.2157126835414,72.35225937850043L1443.396791246959,85.42957990795428L1450.5778698103768,68.9054489397457L1457.7589483737945,25.817413359751242L1464.9400269372122,46.38299233586715L1472.12110550063,49.26689778774736L1479.3021840640479,52.25370409052793L1486.4832626274654,37.3957834512691L1493.664341190883,61.668474686467746L1500.8454197543008,78.34185658225962L1508.0264983177185,104.29634838774268L1515.2075768811362,67.61506070165444L1522.388655444554,72.12773887091517L1529.5697340079716,52.65171532756927L1536.7508125713891,39.854940270766754L1543.931891134807,77.49306915984863L1551.1129696982248,74.23171160874105L1558.2940482616425,88.3542092785991L1565.4751268250602,43.80466087223789L1572.656205388478,88.84105597174474L1579.8372839518956,66.0788566853521L1587.0183625153131,46.4067589095038L1594.1994410787308,97.72525884361221L1601.3805196421486,61.44432224528839L1608.5615982055665,84.01788749866881L1615.7426767689842,73.77249618649378L1622.923755332402,75.16341913430473L1630.1048338958196,37.377038355026905L1637.2859124592371,41.040035226319496L1644.4669910226548,49.18894658107402L1651.6480695860726,48.804396058304754L1658.8291481494903,38.947209642500226L1666.0102267129082,39.927449352724615L1673.191305276326,57.59440022072514L1680.3723838397436,43.13953858635972L1687.5534624031611,52.83062189128329L1694.7345409665788,42.32524424427097L1701.9156195299965,58.83904306265737L1709.0966980934143,75.20629887058945L1716.277776656832,61.08493169040658L1723.4588552202497,76.54358928497257L1730.6399337836676,71.7259943888999L1737.8210123470851,64.90672292537774L1745.0020909105028,54.776299784124305L1752.1831694739205,76.83467723110653L1759.3642480373383,42.84324512962837L1766.545326600756,45.564465230110784L1773.7264051641737,43.982647269937196L1780.9074837275914,42.956557001723525L1788.0885622910089,44.0301278362954L1795.2696408544268,66.00745180261188L1802.4507194178445,69.62717458075632L1809.6317979812623,37.17410231310062L1816.81287654468,65.37106498684972L1823.9939551080977,32.10511806181364L1831.1750336715154,42.3005049237045L1838.3561122349329,45.94749090634138L1845.5371907983506,19.811358329557827L1852.7182693617683,31.48024646646396L1859.8993479251862,56.7765566668654L1867.080426488604,26.577785973379005L1874.2615050520217,49.89387261970209L1881.4425836154394,14.450628870697843L1888.6236621788569,27.476025746465414L1895.8047407422746,16.201152697051086L1902.9858193056923,37.13301032793018L1910.16689786911,38.03440495592409L1917.347976432528,8.22423351567159L1924.5290549959457,38.41637901385223L1931.7101335593634,27.859445779559454L1938.8912121227809,51.77374549726372" fill="none"></path></g></g></g></g></g></g><g transform="translate(72, 376)" clip-path="url(#clip_1)"><clipPath id="clip_1"><rect width="2010" height="23"></rect></clipPath><g><g><line x1="0" y1="0" x2="0" y2="5" style="visibility: inherit;" fill="rgb(0, 0, 0)" stroke="rgb(204, 204, 204)" stroke-width="1px"></line><line x1="143.62157126835413" y1="0" x2="143.62157126835413" y2="5" style="visibility: inherit;" fill="rgb(0, 0, 0)" stroke="rgb(204, 204, 204)" stroke-width="1px"></line><line x1="287.24314253670826" y1="0" x2="287.24314253670826" y2="5" style="visibility: inherit;" fill="rgb(0, 0, 0)" stroke="rgb(204, 204, 204)" stroke-width="1px"></line><line x1="430.8647138050624" y1="0" x2="430.8647138050624" y2="5" style="visibility: inherit;" fill="rgb(0, 0, 0)" stroke="rgb(204, 204, 204)" stroke-width="1px"></line><line x1="574.4862850734165" y1="0" x2="574.4862850734165" y2="5" style="visibility: inherit;" fill="rgb(0, 0, 0)" stroke="rgb(204, 204, 204)" stroke-width="1px"></line><line x1="718.1078563417707" y1="0" x2="718.1078563417707" y2="5" style="visibility: inherit;" fill="rgb(0, 0, 0)" stroke="rgb(204, 204, 204)" stroke-width="1px"></line><line x1="861.7294276101248" y1="0" x2="861.7294276101248" y2="5" style="visibility: inherit;" fill="rgb(0, 0, 0)" stroke="rgb(204, 204, 204)" stroke-width="1px"></line><line x1="1005.350998878479" y1="0" x2="1005.350998878479" y2="5" style="visibility: inherit;" fill="rgb(0, 0, 0)" stroke="rgb(204, 204, 204)" stroke-width="1px"></line><line x1="1148.972570146833" y1="0" x2="1148.972570146833" y2="5" style="visibility: inherit;" fill="rgb(0, 0, 0)" stroke="rgb(204, 204, 204)" stroke-width="1px"></line><line x1="1292.5941414151873" y1="0" x2="1292.5941414151873" y2="5" style="visibility: inherit;" fill="rgb(0, 0, 0)" stroke="rgb(204, 204, 204)" stroke-width="1px"></line><line x1="1436.2157126835414" y1="0" x2="1436.2157126835414" y2="5" style="visibility: inherit;" fill="rgb(0, 0, 0)" stroke="rgb(204, 204, 204)" stroke-width="1px"></line><line x1="1579.8372839518956" y1="0" x2="1579.8372839518956" y2="5" style="visibility: inherit;" fill="rgb(0, 0, 0)" stroke="rgb(204, 204, 204)" stroke-width="1px"></line><line x1="1723.4588552202497" y1="0" x2="1723.4588552202497" y2="5" style="visibility: inherit;" fill="rgb(0, 0, 0)" stroke="rgb(204, 204, 204)" stroke-width="1px"></line><line x1="1867.080426488604" y1="0" x2="1867.080426488604" y2="5" style="visibility: inherit;" fill="rgb(0, 0, 0)" stroke="rgb(204, 204, 204)" stroke-width="1px"></line><line x1="2010.701997756958" y1="0" x2="2010.701997756958" y2="5" style="visibility: inherit;" fill="rgb(0, 0, 0)" stroke="rgb(204, 204, 204)" stroke-width="1px"></line></g><g transform="translate(0, 8)"><text style="text-anchor: middle; visibility: hidden; font-family: Roboto, sans-serif; font-size: 12px; font-weight: 200;" x="0" y="0" dx="0em" dy="0.95em" fill="rgb(255, 255, 255)" stroke="none" stroke-width="1px">-20</text><text style="text-anchor: middle; visibility: inherit; font-family: Roboto, sans-serif; font-size: 12px; font-weight: 200;" x="143.62157126835413" y="0" dx="0em" dy="0.95em" fill="rgb(255, 255, 255)" stroke="none" stroke-width="1px">0</text><text style="text-anchor: middle; visibility: inherit; font-family: Roboto, sans-serif; font-size: 12px; font-weight: 200;" x="287.24314253670826" y="0" dx="0em" dy="0.95em" fill="rgb(255, 255, 255)" stroke="none" stroke-width="1px">20</text><text style="text-anchor: middle; visibility: inherit; font-family: Roboto, sans-serif; font-size: 12px; font-weight: 200;" x="430.8647138050624" y="0" dx="0em" dy="0.95em" fill="rgb(255, 255, 255)" stroke="none" stroke-width="1px">40</text><text style="text-anchor: middle; visibility: inherit; font-family: Roboto, sans-serif; font-size: 12px; font-weight: 200;" x="574.4862850734165" y="0" dx="0em" dy="0.95em" fill="rgb(255, 255, 255)" stroke="none" stroke-width="1px">60</text><text style="text-anchor: middle; visibility: inherit; font-family: Roboto, sans-serif; font-size: 12px; font-weight: 200;" x="718.1078563417707" y="0" dx="0em" dy="0.95em" fill="rgb(255, 255, 255)" stroke="none" stroke-width="1px">80</text><text style="text-anchor: middle; visibility: inherit; font-family: Roboto, sans-serif; font-size: 12px; font-weight: 200;" x="861.7294276101248" y="0" dx="0em" dy="0.95em" fill="rgb(255, 255, 255)" stroke="none" stroke-width="1px">100</text><text style="text-anchor: middle; visibility: inherit; font-family: Roboto, sans-serif; font-size: 12px; font-weight: 200;" x="1005.350998878479" y="0" dx="0em" dy="0.95em" fill="rgb(255, 255, 255)" stroke="none" stroke-width="1px">120</text><text style="text-anchor: middle; visibility: inherit; font-family: Roboto, sans-serif; font-size: 12px; font-weight: 200;" x="1148.972570146833" y="0" dx="0em" dy="0.95em" fill="rgb(255, 255, 255)" stroke="none" stroke-width="1px">140</text><text style="text-anchor: middle; visibility: inherit; font-family: Roboto, sans-serif; font-size: 12px; font-weight: 200;" x="1292.5941414151873" y="0" dx="0em" dy="0.95em" fill="rgb(255, 255, 255)" stroke="none" stroke-width="1px">160</text><text style="text-anchor: middle; visibility: inherit; font-family: Roboto, sans-serif; font-size: 12px; font-weight: 200;" x="1436.2157126835414" y="0" dx="0em" dy="0.95em" fill="rgb(255, 255, 255)" stroke="none" stroke-width="1px">180</text><text style="text-anchor: middle; visibility: inherit; font-family: Roboto, sans-serif; font-size: 12px; font-weight: 200;" x="1579.8372839518956" y="0" dx="0em" dy="0.95em" fill="rgb(255, 255, 255)" stroke="none" stroke-width="1px">200</text><text style="text-anchor: middle; visibility: inherit; font-family: Roboto, sans-serif; font-size: 12px; font-weight: 200;" x="1723.4588552202497" y="0" dx="0em" dy="0.95em" fill="rgb(255, 255, 255)" stroke="none" stroke-width="1px">220</text><text style="text-anchor: middle; visibility: inherit; font-family: Roboto, sans-serif; font-size: 12px; font-weight: 200;" x="1867.080426488604" y="0" dx="0em" dy="0.95em" fill="rgb(255, 255, 255)" stroke="none" stroke-width="1px">240</text><text style="text-anchor: middle; visibility: hidden; font-family: Roboto, sans-serif; font-size: 12px; font-weight: 200;" x="2010.701997756958" y="0" dx="0em" dy="0.95em" fill="rgb(255, 255, 255)" stroke="none" stroke-width="1px">260</text></g><line x1="0" y1="0" x2="2010.701997756958" y2="0" fill="rgb(0, 0, 0)" stroke="rgb(204, 204, 204)" stroke-width="1px"></line></g></g></g></g></svg>